<?xml version="1.0" standalone="no"?>
<!DOCTYPE svg PUBLIC "-//W3C//DTD SVG 20010904//EN"
 "http://www.w3.org/TR/2001/REC-SVG-20010904/DTD/svg10.dtd">
<svg version="1.0" xmlns="http://www.w3.org/2000/svg"
 width="1024.000000pt" height="1024.000000pt" viewBox="0 0 1024.000000 1024.000000"
 preserveAspectRatio="xMidYMid meet">
<metadata>
Created by potrace 1.14, written by Peter Selinger 2001-2017
</metadata>
<g transform="translate(0.000000,1024.000000) scale(0.100000,-0.100000)"
fill="#000000" stroke="none">
<path d="M0 5120 l0 -5120 5120 0 5120 0 0 5120 0 5120 -5120 0 -5120 0 0
-5120z m5023 2953 c-7 -2 -19 -2 -25 0 -7 3 -2 5 12 5 14 0 19 -2 13 -5z m-50
-20 c-7 -2 -21 -2 -30 0 -10 3 -4 5 12 5 17 0 24 -2 18 -5z m176 -23 c6 0 11
4 11 9 0 13 49 8 55 -6 3 -8 15 -11 33 -7 17 4 32 1 36 -5 4 -6 16 -11 27 -11
11 0 17 5 14 10 -3 6 4 10 17 10 18 0 20 -2 9 -9 -11 -7 -6 -11 20 -15 19 -4
43 -6 54 -6 49 0 111 -7 121 -13 6 -3 42 -11 80 -17 38 -6 106 -20 151 -30 46
-11 96 -17 113 -14 18 4 30 2 30 -4 0 -5 -10 -8 -22 -6 -13 2 6 -5 42 -17 87
-27 281 -96 352 -125 31 -13 63 -21 71 -18 8 3 18 1 22 -5 4 -7 -1 -8 -12 -4
-33 11 -9 -4 45 -30 28 -14 52 -21 52 -17 0 5 -9 12 -20 15 -11 4 -17 11 -14
17 5 8 1 9 -12 4 -14 -5 -16 -4 -8 4 12 12 47 3 39 -10 -3 -4 2 -10 10 -14 8
-3 15 -12 15 -20 0 -16 27 -29 42 -19 7 4 8 1 3 -7 -6 -10 -4 -12 9 -7 11 5
15 3 10 -5 -5 -7 0 -9 14 -6 13 4 20 1 19 -5 -1 -6 4 -11 11 -12 7 0 17 -7 22
-15 5 -8 10 -10 10 -5 0 6 3 6 8 0 12 -18 65 -48 57 -34 -4 9 -2 9 7 -1 18
-21 176 -127 161 -109 -7 9 -9 20 -5 24 4 5 -1 5 -10 2 -11 -4 -15 -2 -12 6 2
7 15 13 27 14 12 0 16 -1 8 -4 -11 -5 -11 -7 0 -14 11 -7 11 -9 1 -9 -9 0 -7
-9 8 -30 14 -20 28 -29 38 -26 10 3 33 1 52 -3 24 -6 28 -9 13 -10 -13 -1 -23
-7 -23 -15 0 -7 10 -20 23 -29 12 -8 33 -24 46 -36 13 -11 29 -21 35 -21 6 0
-4 10 -21 23 -18 12 -33 26 -33 31 0 5 9 1 19 -8 11 -10 25 -15 32 -10 8 5 10
3 4 -6 -6 -10 -4 -12 9 -7 14 6 17 4 11 -10 -3 -10 -7 -21 -8 -24 -4 -11 133
-120 143 -114 6 4 9 3 8 -2 -2 -4 5 -18 14 -31 l16 -23 14 20 c14 20 15 20 15
-10 0 -19 -3 -25 -9 -17 -4 7 -8 8 -8 2 0 -6 11 -21 26 -34 21 -20 27 -22 34
-10 5 8 6 19 3 25 -4 5 -3 7 1 3 4 -3 8 -10 8 -15 -1 -4 7 -16 15 -25 9 -10
13 -18 8 -18 -4 0 -1 -8 6 -17 13 -16 12 -17 -3 -4 -10 7 -16 17 -13 21 3 5 1
11 -4 14 -23 15 -18 -13 7 -36 25 -23 79 -38 67 -18 -3 5 -1 11 4 15 6 3 8 -3
6 -15 -2 -11 0 -20 6 -20 5 0 9 -5 9 -10 0 -6 -11 -3 -25 6 -24 16 -25 16 -19
-2 8 -22 44 -64 55 -64 5 0 6 8 2 18 -5 14 -3 15 7 5 9 -9 10 -16 3 -25 -8
-10 0 -25 35 -63 25 -27 42 -44 37 -36 -5 10 -4 12 4 7 6 -4 10 -13 9 -19 -1
-7 13 -33 31 -59 24 -32 39 -45 53 -43 12 3 16 0 12 -7 -5 -7 -2 -9 9 -5 9 3
19 3 21 -2 7 -11 -27 -10 -41 2 -9 6 -13 6 -13 -1 0 -15 23 -30 43 -27 9 2 15
-1 11 -6 -3 -5 -10 -7 -15 -4 -5 4 -9 4 -9 1 0 -10 114 -181 129 -194 9 -8 10
-10 3 -7 -15 8 4 -33 47 -100 14 -22 26 -44 27 -50 8 -35 73 -163 79 -157 5 4
5 2 2 -5 -9 -14 2 -45 13 -38 5 3 6 -4 3 -15 -3 -11 -1 -20 4 -20 5 0 10 -6
10 -12 0 -7 15 -56 33 -108 53 -156 89 -296 115 -454 14 -81 25 -152 25 -158
0 -5 4 -7 8 -4 10 6 9 -35 -1 -51 -5 -7 -4 -13 0 -13 5 0 9 -108 8 -240 0
-153 4 -240 10 -240 6 0 6 -3 0 -8 -6 -4 -11 -18 -12 -32 -5 -80 -5 -127 -1
-140 3 -8 3 -12 1 -7 -3 4 -9 7 -14 7 -14 0 -11 -40 4 -41 10 0 10 -2 0 -6 -7
-2 -13 -17 -12 -31 l1 -27 8 25 8 25 0 -25 c1 -32 -11 -62 -23 -60 -6 0 -11
-11 -13 -26 -2 -16 0 -24 7 -20 5 4 8 14 5 24 -5 15 -5 15 6 -1 8 -13 8 -22
-3 -37 -8 -11 -16 -18 -18 -15 -3 2 -5 -4 -6 -13 -1 -9 -8 -41 -16 -69 -8 -29
-11 -53 -6 -53 16 0 10 -25 -11 -43 -11 -9 -19 -25 -19 -34 1 -17 2 -17 6 0 2
9 9 17 14 17 11 0 -5 -35 -21 -45 -6 -3 -10 -21 -10 -40 0 -19 -4 -37 -10 -40
-5 -3 -15 -16 -21 -28 -10 -21 -9 -21 10 2 25 28 25 27 6 -24 -8 -22 -14 -34
-15 -26 0 11 -4 9 -15 -5 -17 -22 -20 -38 -5 -29 6 3 10 1 10 -4 0 -6 -9 -16
-19 -23 -10 -6 -17 -18 -14 -25 3 -7 1 -13 -4 -13 -6 0 -15 -11 -21 -25 -17
-36 -14 -45 3 -15 11 19 14 21 15 7 0 -9 -11 -26 -23 -37 -16 -14 -23 -30 -22
-50 1 -24 -1 -28 -12 -18 -10 8 -12 8 -8 -4 4 -9 0 -18 -9 -21 -10 -4 -14 -16
-11 -36 2 -23 0 -28 -11 -24 -8 3 -14 -1 -14 -11 0 -9 -5 -16 -11 -16 -6 0 -8
-7 -5 -16 3 -8 2 -13 -3 -9 -13 7 -34 -61 -25 -77 6 -10 5 -10 -8 0 -13 10
-17 10 -21 -2 -4 -9 -1 -18 5 -22 7 -5 8 -2 3 7 -7 12 -6 12 9 0 15 -13 19
-13 28 0 8 12 9 12 5 -1 -2 -9 -15 -15 -30 -14 -15 1 -27 -3 -27 -8 0 -5 -4
-7 -9 -4 -5 3 -12 -1 -15 -10 -3 -8 -2 -12 4 -9 11 7 13 -6 4 -29 -5 -14 -9
-14 -23 -4 -9 7 -13 8 -9 4 4 -5 2 -16 -5 -24 -8 -10 -8 -13 -1 -9 7 4 15 0
18 -9 3 -8 2 -13 -3 -10 -5 3 -14 -1 -21 -9 -7 -8 -16 -13 -20 -10 -5 3 -12 0
-16 -6 -4 -8 -3 -9 4 -5 15 9 15 1 2 -25 -6 -10 -16 -19 -23 -19 -7 0 -6 4 3
10 8 5 10 10 4 10 -22 0 -23 -13 -4 -38 28 -35 10 -52 -28 -28 -22 14 -42 -13
-39 -54 2 -21 -1 -46 -5 -56 -7 -16 -8 -16 -4 3 2 13 0 26 -5 29 -6 3 -5 12 2
22 7 10 -8 -5 -34 -33 -44 -48 -58 -75 -37 -75 5 0 7 8 4 18 -5 13 -4 14 4 3
16 -22 4 -43 -18 -31 -13 7 -21 7 -25 0 -3 -5 -1 -10 5 -10 6 0 8 -5 5 -10 -4
-6 -10 -8 -15 -5 -4 3 -14 -3 -21 -12 -10 -12 -10 -14 -1 -9 7 4 12 2 12 -5 0
-8 4 -8 15 1 10 9 15 9 15 1 0 -11 -5 -13 -32 -15 -21 -2 -36 -20 -30 -35 3
-8 1 -12 -5 -8 -6 4 -18 -2 -28 -13 -10 -11 -22 -17 -28 -13 -5 3 -7 1 -4 -4
10 -16 59 -13 53 3 -8 21 2 17 13 -5 10 -18 7 -19 -39 -16 -49 4 -72 -7 -49
-21 8 -5 9 -3 4 6 -6 9 -4 11 4 5 9 -5 9 -11 3 -17 -6 -6 -8 -16 -6 -22 6 -15
-33 -39 -42 -25 -4 7 -14 4 -27 -8 l-22 -18 19 22 c10 13 23 20 27 17 5 -3 9
1 9 8 0 10 2 10 9 -1 6 -9 11 -10 15 -2 4 6 1 11 -6 11 -9 0 -9 3 2 10 9 6 10
10 3 10 -23 0 -96 -78 -89 -96 4 -12 2 -15 -9 -10 -8 3 -15 1 -15 -4 0 -6 -3
-9 -7 -8 -5 2 -19 -5 -33 -15 -13 -9 -19 -17 -12 -17 7 0 11 -4 7 -10 -3 -5
-12 -7 -19 -4 -7 3 -19 -3 -27 -12 -9 -12 -10 -15 -1 -10 6 4 12 2 12 -3 0 -6
5 -11 11 -11 6 0 9 7 6 14 -9 22 16 9 32 -17 13 -20 13 -21 -2 -9 -11 10 -21
11 -35 3 -11 -6 -22 -7 -26 -4 -12 12 -35 11 -39 -1 -7 -17 10 -43 20 -33 4 5
2 12 -6 16 -10 7 -10 9 2 14 10 4 14 -1 13 -16 -1 -26 -19 -32 -39 -13 -13 14
-16 14 -27 0 -11 -12 -10 -13 6 -7 17 6 17 5 5 -10 -10 -13 -17 -15 -27 -6 -8
6 -14 9 -14 5 0 -16 -2 -22 -15 -36 -7 -8 -14 -19 -14 -25 0 -15 -35 -23 -50
-11 -12 9 -13 7 -9 -11 5 -21 4 -22 -15 -11 -20 10 -21 10 -8 -6 13 -16 13
-17 0 -15 -7 2 -27 0 -43 -4 -28 -8 -28 -8 -10 -29 19 -21 19 -21 -3 -9 -28
14 -36 14 -27 -1 5 -8 1 -9 -12 -5 -18 7 -18 6 -1 -7 16 -12 16 -14 2 -20 -9
-3 -14 -2 -11 3 3 5 -1 12 -10 15 -12 4 -15 2 -10 -9 3 -8 1 -15 -4 -15 -6 0
-10 -7 -10 -15 0 -8 -5 -15 -11 -15 -5 0 -7 5 -4 10 7 11 -6 13 -29 4 -13 -5
-14 -9 -5 -20 9 -11 9 -14 0 -14 -7 0 -9 -5 -5 -12 6 -9 3 -9 -9 0 -12 10 -21
11 -34 3 -13 -7 -14 -10 -4 -11 8 0 11 -3 8 -6 -4 -4 -15 -1 -24 7 -10 7 -15
10 -11 5 4 -5 -3 -17 -15 -27 -12 -10 -17 -18 -10 -19 6 0 14 5 16 10 3 6 4 5
3 -2 -2 -8 -19 -13 -45 -14 -23 0 -47 -6 -53 -12 -16 -16 4 -15 22 1 12 10 12
9 1 -6 -8 -10 -21 -15 -31 -12 -19 6 -82 -18 -122 -47 -16 -10 -33 -16 -39
-12 -8 5 -9 3 -4 -6 6 -10 4 -12 -8 -7 -10 3 -17 2 -17 -3 0 -6 8 -10 18 -11
9 0 12 -3 5 -5 -7 -3 -21 0 -32 6 -17 8 -19 8 -15 -4 4 -11 0 -13 -14 -9 -26
6 -70 -16 -53 -27 9 -5 8 -9 -4 -13 -9 -4 -13 -3 -10 2 3 5 1 12 -5 16 -5 3
-10 2 -10 -3 0 -6 -6 -10 -12 -9 -7 0 -22 -1 -33 -2 -17 -1 -18 -3 -5 -11 13
-8 12 -10 -3 -10 -10 0 -16 -3 -13 -8 2 -4 -13 -7 -34 -5 -27 1 -40 -3 -44
-14 -4 -8 -13 -13 -21 -9 -19 7 -47 -3 -39 -15 3 -5 -14 -7 -37 -5 -31 3 -39
2 -28 -6 11 -7 9 -9 -8 -5 -13 3 -26 1 -29 -4 -3 -6 -15 -7 -26 -3 -13 4 -18
2 -14 -4 7 -12 -48 -27 -64 -17 -5 3 -20 0 -32 -7 -13 -6 -30 -11 -40 -10 -9
2 -54 -6 -100 -18 -45 -11 -105 -20 -133 -19 -27 1 -74 -4 -104 -10 -30 -6
-63 -9 -73 -5 -10 3 -18 0 -18 -7 0 -8 -3 -9 -13 0 -8 6 -17 8 -20 4 -4 -3
-28 -6 -54 -5 -27 0 -112 1 -190 2 -92 1 -143 5 -143 12 0 7 -21 8 -57 5 -42
-4 -51 -3 -33 3 19 8 13 9 -28 5 -29 -2 -50 0 -47 5 3 5 -7 5 -26 0 -29 -9
-128 -4 -138 5 -2 3 11 5 30 6 32 0 31 1 -16 14 -27 8 -79 15 -115 16 -36 1
-57 5 -47 8 13 5 6 10 -28 19 -26 7 -51 10 -56 7 -5 -4 -9 -1 -9 4 0 6 -7 11
-15 11 -8 0 -42 9 -75 21 -33 11 -65 17 -71 13 -8 -5 -9 -3 -4 6 6 9 -1 11
-26 6 -23 -4 -27 -3 -14 2 16 7 11 12 -35 28 -30 10 -61 18 -67 18 -7 -1 -10
2 -7 7 3 5 -2 9 -12 9 -9 0 -33 9 -53 19 -20 10 -74 37 -121 59 -47 23 -107
54 -135 70 -27 16 -66 38 -85 49 -81 46 -176 107 -210 134 -26 21 -42 28 -56
22 -17 -6 -18 -5 -4 12 14 17 13 18 -8 12 -17 -4 -22 -2 -19 7 3 7 -5 18 -16
26 -21 12 -21 12 -7 -6 13 -17 13 -18 0 -8 -8 6 -30 11 -49 9 -29 -2 -32 0
-18 10 22 16 22 29 0 20 -14 -5 -15 -3 -6 6 14 14 36 2 29 -17 -6 -16 10 -19
19 -3 7 11 -33 46 -47 41 -5 -1 -7 4 -5 11 1 8 -11 12 -35 12 -36 0 -45 6 -35
23 2 4 3 2 1 -4 -1 -7 8 -11 22 -10 23 1 23 3 -16 38 -22 21 -46 35 -54 32 -8
-3 -17 -1 -21 5 -4 7 1 8 12 4 17 -6 16 -5 -1 16 -15 16 -22 19 -29 9 -6 -10
-7 -8 -4 4 7 19 -27 53 -42 43 -7 -3 -8 0 -5 9 6 14 -5 21 -28 17 -4 0 -5 6
-2 14 4 10 0 15 -15 15 -13 0 -18 5 -15 13 2 7 -7 24 -22 37 -26 24 -26 24
-20 3 4 -12 3 -24 -2 -27 -5 -3 -8 9 -7 25 2 32 -17 60 -38 55 -7 -1 -9 -1 -4
1 14 8 -77 123 -97 123 -6 0 -5 -5 2 -12 18 -18 15 -33 -4 -17 -9 7 -13 21
-10 33 3 12 -2 30 -10 40 -8 11 -14 15 -14 10 0 -6 6 -16 13 -23 9 -11 7 -10
-13 0 -14 8 -27 15 -30 17 -2 2 2 7 9 11 11 7 7 19 -20 57 -19 27 -40 55 -47
62 -7 8 -19 27 -28 43 -8 17 -20 27 -26 23 -7 -4 -8 -3 -4 5 4 6 2 19 -6 28
-7 9 -36 59 -64 111 -45 83 -53 92 -62 76 -10 -17 -11 -15 -9 11 1 18 -3 29
-9 28 -7 -1 -10 6 -7 16 3 11 -2 30 -10 42 -8 13 -18 37 -22 54 -6 29 -7 29
-21 11 -16 -23 -18 -17 -5 17 11 28 4 42 -13 28 -8 -6 -12 4 -14 35 -3 48 -37
134 -44 112 -3 -7 -8 -10 -12 -6 -4 3 -3 15 3 26 8 15 5 35 -11 83 -12 35 -25
65 -29 67 -4 2 -6 9 -3 15 2 7 -2 32 -10 57 -13 41 -14 42 -15 15 -1 -16 -6
-37 -11 -45 -8 -11 -9 -7 -5 15 4 17 8 39 10 50 5 28 -19 148 -28 139 -4 -4
-7 10 -7 32 -1 66 -25 206 -34 197 -5 -4 -6 14 -2 42 4 37 3 45 -4 30 -8 -15
-9 -4 -5 38 3 32 2 56 -2 54 -10 -7 -10 476 0 484 9 7 12 212 3 228 -4 6 -2
11 3 11 6 0 12 -15 12 -32 1 -21 5 -11 10 27 5 33 13 68 19 77 16 28 40 147
33 164 -4 11 -2 15 4 11 14 -9 3 46 -10 55 -11 7 37 88 52 88 9 0 21 44 27
103 4 39 23 86 24 58 0 -8 2 -12 5 -9 3 3 0 17 -6 32 -12 25 -10 29 16 54 16
15 33 26 37 25 4 -2 5 4 2 12 -4 8 -11 12 -16 9 -6 -4 -5 2 1 14 7 14 8 23 1
27 -5 3 -10 12 -10 18 0 7 4 6 10 -3 7 -12 10 -8 11 15 0 27 2 28 10 10 7 -15
8 -12 4 15 -4 25 -2 31 5 20 8 -13 11 -13 19 -1 5 7 13 11 17 8 5 -3 8 27 8
66 -1 58 0 64 6 33 4 -21 6 -48 4 -60 -3 -13 0 -10 7 7 6 15 14 25 18 23 4 -3
5 8 3 25 -3 21 3 39 22 64 15 19 24 40 21 45 -3 6 -1 10 4 10 6 0 11 7 11 16
0 8 -4 12 -10 9 -5 -3 -10 -1 -10 4 0 6 14 11 31 11 22 0 40 10 65 36 18 20
31 40 29 44 -3 5 0 10 6 12 6 2 1 12 -12 23 l-22 20 8 -24 c5 -15 4 -21 -3
-17 -6 3 -13 0 -15 -6 -3 -7 -4 1 -4 19 1 17 5 29 10 26 4 -2 7 0 7 6 0 13 28
8 43 -9 9 -10 9 -11 0 -6 -7 4 -13 2 -13 -4 0 -7 6 -10 13 -7 6 2 12 12 12 22
0 10 6 20 13 23 16 5 16 29 0 34 -16 6 27 94 50 103 28 11 26 -6 -3 -31 -21
-18 -26 -27 -17 -31 10 -4 10 -9 -3 -23 -11 -12 -13 -20 -6 -25 6 -3 11 1 11
9 0 9 5 16 10 16 6 0 10 7 10 15 0 14 12 29 86 105 14 14 21 30 17 35 -4 4 -3
5 4 1 18 -10 25 10 8 24 -8 7 -15 20 -14 29 0 11 3 9 9 -6 11 -26 30 -31 30
-8 0 8 4 14 8 13 11 -4 72 60 72 75 0 7 -4 6 -10 -3 -6 -9 -10 -10 -10 -3 0
16 17 26 25 13 4 -6 11 -8 16 -4 5 3 7 10 4 15 -4 5 1 9 10 9 8 0 20 10 25 23
5 12 9 19 9 14 1 -4 30 21 66 56 62 61 78 87 54 87 -6 0 -8 -8 -5 -17 5 -15 4
-15 -9 1 -8 11 -15 14 -15 8 0 -7 -4 -12 -8 -12 -5 0 -9 6 -9 14 0 8 8 13 18
11 10 -2 21 0 24 6 7 11 26 12 24 2 -4 -27 4 -29 27 -8 16 14 23 29 18 36 -5
8 -2 10 8 7 18 -7 43 7 43 24 0 7 8 12 18 12 9 -1 14 2 11 7 -3 5 1 9 9 9 18
0 59 35 50 44 -3 3 1 6 11 6 9 0 15 4 12 9 -4 5 2 7 13 4 23 -6 37 13 22 30
-11 14 -9 42 4 54 4 4 5 3 2 -4 -4 -6 -2 -13 5 -15 6 -2 12 -12 14 -21 1 -10
-2 -14 -8 -11 -7 5 -8 2 -3 -6 6 -10 11 -9 22 6 8 10 17 19 21 19 4 0 18 8 31
17 26 18 23 48 -4 48 -20 0 -17 42 3 46 7 1 8 0 2 -3 -5 -2 -10 -12 -10 -21 0
-12 3 -13 12 -4 7 7 23 11 37 11 21 -1 22 -2 6 -6 -11 -3 -24 -9 -30 -15 -7
-6 0 -7 20 -3 29 7 29 7 10 -8 -11 -8 -17 -18 -14 -21 3 -3 14 2 25 12 10 10
24 19 29 19 6 1 21 12 34 25 14 13 21 16 16 9 -5 -9 3 -7 21 6 16 11 38 25 49
32 18 11 17 12 -10 7 -16 -3 -24 -3 -17 0 6 3 10 10 6 15 -7 11 -1 11 30 -1
17 -6 26 -6 26 0 0 6 3 9 8 9 20 -3 32 2 32 15 0 22 40 59 78 73 17 6 30 8 27
3 -3 -4 4 -10 15 -13 11 -3 18 -1 15 3 -8 13 60 61 78 55 8 -4 18 -2 22 4 6
10 -11 15 -45 13 -11 0 -10 3 4 14 11 8 25 14 30 14 6 0 4 -5 -4 -10 -13 -9
-13 -10 0 -10 9 0 21 5 28 12 9 9 12 9 12 0 0 -7 -6 -12 -12 -13 -7 -1 2 -5
21 -9 19 -5 40 -6 48 -3 15 6 18 23 3 23 -5 0 -10 -4 -10 -10 0 -5 -4 -10 -10
-10 -16 0 -12 17 6 24 9 4 24 1 32 -6 13 -11 15 -10 9 5 -6 15 0 17 46 18 29
0 61 4 72 9 18 7 18 8 -7 15 -15 4 -33 4 -40 -1 -10 -5 -10 -4 -1 6 10 11 20
11 50 2 42 -13 58 -8 22 8 l-24 11 25 -7 c41 -10 69 -5 91 14 11 11 38 25 61
31 27 9 37 15 29 21 -9 5 -2 9 18 12 17 2 31 3 31 1 0 -11 -30 -33 -44 -33 -9
0 -16 -4 -16 -9 0 -13 41 -1 63 17 9 8 17 12 17 7 0 -4 6 -3 13 2 6 6 28 13
47 16 19 4 52 11 72 16 21 5 36 6 34 2 -2 -3 14 -7 36 -7 28 -1 36 1 27 8 -9
6 2 8 33 4 28 -3 50 -1 53 5 4 6 25 7 52 3 36 -5 44 -4 38 6 -6 10 -1 12 21 7
16 -3 37 -1 48 5 13 7 16 7 11 -1 -7 -13 35 -6 66 10 9 5 34 6 55 4 21 -3 33
-3 26 1 -6 3 -9 11 -6 16 5 7 11 5 19 -5 7 -10 17 -17 24 -17z m161 20 c8 -5
11 -10 5 -10 -5 0 -17 5 -25 10 -8 5 -10 10 -5 10 6 0 17 -5 25 -10z m-410 -4
c0 -2 -7 -7 -16 -10 -8 -3 -12 -2 -9 4 6 10 25 14 25 6z m43 -13 c-7 -2 -19
-2 -25 0 -7 3 -2 5 12 5 14 0 19 -2 13 -5z m-380 -45 c-2 -5 -15 -8 -29 -8
-13 0 -24 3 -24 8 0 4 13 7 29 7 16 0 27 -3 24 -7z m1014 6 c-3 -3 -12 -4 -19
-1 -8 3 -5 6 6 6 11 1 17 -2 13 -5z m61 -11 c-10 -2 -26 -2 -35 0 -10 3 -2 5
17 5 19 0 27 -2 18 -5z m76 -2 c3 -5 22 -12 42 -16 20 -3 34 -8 31 -11 -7 -7
-96 17 -103 27 -3 5 2 9 10 9 8 0 17 -4 20 -9z m63 3 c-3 -3 -12 -4 -19 -1 -8
3 -5 6 6 6 11 1 17 -2 13 -5z m50 -40 c-3 -3 -12 -4 -19 -1 -8 3 -5 6 6 6 11
1 17 -2 13 -5z m133 -34 c8 -5 11 -10 5 -10 -5 0 -17 5 -25 10 -8 5 -10 10 -5
10 6 0 17 -5 25 -10z m57 -16 c-3 -3 -12 -4 -19 -1 -8 3 -5 6 6 6 11 1 17 -2
13 -5z m68 -4 c-18 -5 -23 -8 -11 -9 11 0 17 -4 13 -7 -3 -4 -19 -3 -34 1 -26
7 -26 8 -8 15 11 5 31 8 45 8 23 0 22 -1 -5 -8z m70 -20 c3 -6 -1 -7 -9 -4
-18 7 -21 14 -7 14 6 0 13 -4 16 -10z m-19 -15 c16 -8 22 -15 13 -15 -8 0 -24
7 -35 15 -25 19 -14 19 22 0z m141 -34 c10 -6 14 -10 8 -11 -5 0 -17 4 -25 10
-9 6 -20 5 -29 -3 -12 -9 -13 -9 -7 1 6 10 1 11 -21 7 -22 -4 -24 -3 -8 4 23
11 56 7 82 -8z m41 -16 c-3 -3 -9 2 -12 12 -6 14 -5 15 5 6 7 -7 10 -15 7 -18z
m-21 -11 c-3 -3 -12 -4 -19 -1 -8 3 -5 6 6 6 11 1 17 -2 13 -5z m-2507 -38 c0
-2 -7 -7 -16 -10 -8 -3 -12 -2 -9 4 6 10 25 14 25 6z m-162 -98 c-6 -16 -21
-14 -24 4 -1 11 3 15 12 11 8 -3 13 -10 12 -15z m3001 0 c-12 -23 -21 -24 -12
-1 5 12 2 15 -10 10 -9 -3 -19 -3 -21 2 -3 4 8 7 24 7 25 0 27 -2 19 -18z
m-3004 -38 c3 -5 2 -10 -4 -10 -5 0 -13 5 -16 10 -3 6 -2 10 4 10 5 0 13 -4
16 -10z m-66 -37 c-6 -7 -15 -10 -20 -7 -13 8 -3 21 15 21 12 0 13 -4 5 -14z
m3187 2 c11 -8 14 -14 6 -15 -7 0 2 -14 20 -31 l33 -31 -40 28 c-56 39 -63 46
-40 39 20 -7 20 -6 1 9 -25 20 -7 21 20 1z m47 -2 c-3 -7 -9 -13 -13 -13 -4 0
-10 6 -13 13 -3 7 3 13 13 13 10 0 16 -6 13 -13z m-3337 -61 c-9 -14 -42 -21
-57 -11 -10 6 -4 9 19 9 18 0 32 5 32 12 0 6 3 9 6 5 3 -3 3 -10 0 -15z m-176
-114 c0 -9 4 -8 11 2 9 13 10 13 6 0 -2 -8 -13 -14 -24 -12 -11 2 -23 -4 -26
-13 -4 -8 -14 -15 -22 -15 -9 0 -13 -4 -10 -10 3 -5 -2 -10 -12 -11 -11 0 -13
-3 -5 -6 6 -2 9 -9 6 -15 -4 -6 -10 -5 -15 3 -8 12 -11 11 -19 -1 -5 -8 -8
-20 -6 -26 2 -6 -6 -16 -17 -24 -12 -7 -19 -9 -15 -5 4 5 3 14 -4 22 -8 10 -8
17 1 26 10 9 11 8 6 -8 -6 -17 -3 -16 13 5 11 13 18 28 16 32 -3 4 2 5 10 2 8
-3 17 2 20 14 4 10 21 25 39 34 41 20 47 21 47 6z m3707 -14 c-3 -3 -12 -4
-19 -1 -8 3 -5 6 6 6 11 1 17 -2 13 -5z m-3843 -42 c3 -5 -1 -9 -9 -9 -8 0
-12 4 -9 9 3 4 7 8 9 8 2 0 6 -4 9 -8z m3971 -22 c3 -6 -1 -7 -9 -4 -18 7 -21
14 -7 14 6 0 13 -4 16 -10z m-12 -29 c-2 -6 1 -11 6 -11 5 0 12 -7 15 -16 4
-11 -3 -8 -23 8 -15 13 -26 27 -24 31 7 12 28 2 26 -12z m67 -46 c-15 -18 0
-20 21 -3 7 7 6 4 -3 -7 -18 -19 -18 -19 -35 -1 -10 10 -12 16 -5 12 7 -4 15
-1 18 9 4 9 9 14 12 11 3 -3 -1 -12 -8 -21z m-4096 -16 c4 6 12 8 18 5 7 -5 3
-11 -11 -16 -12 -4 -20 -11 -17 -16 2 -4 -5 -8 -17 -9 -12 0 -17 1 -11 3 6 3
10 19 8 37 -3 31 -3 32 10 8 9 -16 16 -20 20 -12z m4123 -24 c0 -8 -4 -12 -9
-9 -5 3 -6 10 -3 15 9 13 12 11 12 -6z m-4178 -24 c2 -1 -2 -8 -9 -16 -10 -12
-10 -15 0 -15 22 0 2 -12 -24 -15 -22 -3 -26 7 -16 35 1 3 2 8 2 11 -1 4 26 4
47 0z m4226 -1 c-3 -5 -1 -10 5 -10 6 0 8 -5 4 -11 -4 -8 -9 -7 -15 2 -7 12
-3 29 7 29 3 0 2 -4 -1 -10z m-4343 -92 c-7 -27 -17 -29 -17 -4 0 13 5 23 11
23 6 0 9 -9 6 -19z m54 10 c4 -7 4 -10 -1 -6 -4 4 -14 3 -22 -3 -8 -8 -13 -8
-13 -1 0 6 6 13 13 15 6 3 13 6 14 6 1 1 5 -5 9 -11z m-123 -110 c-10 -21 -10
-21 -9 9 1 19 5 28 10 23 6 -6 5 -18 -1 -32z m-98 -80 c-1 -24 0 -29 2 -10 2
17 9 32 14 32 6 0 8 -8 6 -17 -3 -10 -8 -31 -12 -48 -6 -28 -7 -28 -18 -10
-14 25 -8 95 7 95 2 0 2 -19 1 -42z m52 36 c-3 -3 -12 -4 -19 -1 -8 3 -5 6 6
6 11 1 17 -2 13 -5z m4728 -46 c2 -20 1 -20 -11 -3 -7 10 -11 22 -8 27 8 13
17 2 19 -24z m-4725 18 c0 -3 -4 -8 -10 -11 -5 -3 -10 -1 -10 4 0 6 5 11 10
11 6 0 10 -2 10 -4z m4745 -55 c3 -5 2 -12 -3 -15 -5 -3 -9 1 -9 9 0 17 3 19
12 6z m46 -18 c-12 -20 -14 -14 -5 12 4 9 9 14 11 11 3 -2 0 -13 -6 -23z m12
-76 c-3 -6 -11 -3 -19 8 -7 10 -11 22 -7 28 3 6 11 3 19 -8 7 -10 11 -22 7
-28z m-4993 -131 c0 -2 -7 -7 -16 -10 -8 -3 -12 -2 -9 4 6 10 25 14 25 6z
m5143 -18 c19 16 19 16 6 -5 -15 -25 -24 -28 -34 -13 -4 6 -10 8 -14 6 -4 -3
-8 2 -8 10 0 13 2 13 16 0 13 -14 17 -14 34 2z m11 -76 c3 -5 -1 -9 -9 -9 -8
0 -12 4 -9 9 3 4 7 8 9 8 2 0 6 -4 9 -8z m-5327 -149 c-3 -10 -5 -2 -5 17 0
19 2 27 5 18 2 -10 2 -26 0 -35z m5473 -103 c0 -5 -5 -10 -11 -10 -5 0 -7 5
-4 10 3 6 8 10 11 10 2 0 4 -4 4 -10z m97 -232 c2 -17 0 -19 -7 -8 -5 8 -6 18
-4 22 8 12 10 10 11 -14z m-5746 -42 c-9 -19 -10 -18 -5 7 4 17 2 27 -6 27 -6
0 -8 5 -4 11 13 21 27 -21 15 -45z m-41 -112 c0 -3 -7 -12 -15 -21 -20 -19
-32 -10 -14 11 14 15 29 21 29 10z m-43 -81 c-3 -10 -5 -4 -5 12 0 17 2 24 5
18 2 -7 2 -21 0 -30z m8 -122 c-4 -23 -10 -41 -14 -41 -4 0 -3 20 3 45 13 54
21 51 11 -4z m-45 -91 c0 -5 -4 -10 -10 -10 -5 0 -10 5 -10 10 0 6 5 10 10 10
6 0 10 -4 10 -10z m5997 -12 c-3 -8 -6 -5 -6 6 -1 11 2 17 5 13 3 -3 4 -12 1
-19z m10 -110 c-3 -7 -5 -2 -5 12 0 14 2 19 5 13 2 -7 2 -19 0 -25z m-6028
-37 c1 -35 -5 -22 -12 24 -5 28 -4 34 3 20 5 -11 9 -31 9 -44z m6048 37 c-3
-8 -6 -5 -6 6 -1 11 2 17 5 13 3 -3 4 -12 1 -19z m11 -79 c-3 -8 -7 -3 -11 10
-4 17 -3 21 5 13 5 -5 8 -16 6 -23z m-6061 -96 c-2 -16 -4 -5 -4 22 0 28 2 40
4 28 2 -13 2 -35 0 -50z m6060 -665 c-2 -13 -4 -3 -4 22 0 25 2 35 4 23 2 -13
2 -33 0 -45z m-6058 -73 c2 24 6 18 17 -29 8 -33 13 -65 11 -70 -2 -6 -7 8
-11 31 -6 30 -11 40 -22 36 -11 -4 -14 6 -12 53 l1 59 7 -55 c4 -36 8 -45 9
-25z m6048 -137 c-3 -8 -6 -5 -6 6 -1 11 2 17 5 13 3 -3 4 -12 1 -19z m0 -80
c-3 -8 -6 -5 -6 6 -1 11 2 17 5 13 3 -3 4 -12 1 -19z m-50 -40 c-3 -8 -6 -5
-6 6 -1 11 2 17 5 13 3 -3 4 -12 1 -19z m-43 -183 c-4 -8 -8 -15 -10 -15 -2 0
-4 7 -4 15 0 8 4 15 10 15 5 0 7 -7 4 -15z m9 -130 c-3 -9 -8 -14 -10 -11 -3
3 -2 9 2 15 9 16 15 13 8 -4z m-5826 -27 c-3 -7 -5 -2 -5 12 0 14 2 19 5 13 2
-7 2 -19 0 -25z m10 -40 c-3 -8 -6 -5 -6 6 -1 11 2 17 5 13 3 -3 4 -12 1 -19z
m36 -8 c3 -11 1 -20 -4 -20 -5 0 -9 9 -9 20 0 11 2 20 4 20 2 0 6 -9 9 -20z
m5701 -15 c-4 -8 -8 -15 -10 -15 -2 0 -4 7 -4 15 0 8 4 15 10 15 5 0 7 -7 4
-15z m-5633 -158 c-10 -9 -11 -8 -5 6 3 10 9 15 12 12 3 -3 0 -11 -7 -18z
m5553 -39 c-7 -11 -34 -10 -34 1 0 6 9 9 19 8 11 0 17 -5 15 -9z m-2 -27 c8
11 9 11 6 1 -4 -16 -22 -18 -25 -2 -1 7 0 6 4 -1 4 -8 8 -7 15 2z m-5458 -87
c3 -8 2 -12 -4 -9 -6 3 -10 10 -10 16 0 14 7 11 14 -7z m5380 -36 c-3 -4 -9
-8 -15 -8 -5 0 -9 4 -9 8 0 5 7 9 15 9 8 0 12 -4 9 -9z m-5334 -64 c0 -8 -5
-12 -10 -9 -6 4 -8 11 -5 16 9 14 15 11 15 -7z m89 -144 c11 -24 11 -24 -3 -6
-9 11 -16 24 -16 30 0 12 5 7 19 -24z m5149 18 c17 -17 15 -27 -5 -24 -10 2
-19 10 -21 19 -4 20 9 22 26 5z m-5171 -60 c-3 -8 -6 -5 -6 6 -1 11 2 17 5 13
3 -3 4 -12 1 -19z m43 -9 c0 -5 -4 -9 -10 -9 -5 0 -10 7 -10 16 0 8 5 12 10 9
6 -3 10 -10 10 -16z m54 -41 c8 -5 7 -8 -1 -8 -7 0 -17 9 -23 19 -14 27 -12
41 2 16 6 -11 16 -23 22 -27z m4899 -85 c-9 -27 -24 -43 -33 -38 -5 3 1 16 13
30 26 29 28 30 20 8z m17 -37 c0 -3 -4 -8 -10 -11 -5 -3 -10 -1 -10 4 0 6 5
11 10 11 6 0 10 -2 10 -4z m-4845 -26 c3 -5 1 -10 -4 -10 -6 0 -11 5 -11 10 0
6 2 10 4 10 3 0 8 -4 11 -10z m4860 0 c-3 -5 -12 -10 -18 -10 -7 0 -6 4 3 10
19 12 23 12 15 0z m-4781 -56 c3 -8 2 -12 -4 -9 -6 3 -10 10 -10 16 0 14 7 11
14 -7z m4687 -27 c-10 -9 -11 -8 -5 6 3 10 9 15 12 12 3 -3 0 -11 -7 -18z
m-233 -211 c-1 -14 -5 -23 -9 -20 -4 2 -10 0 -14 -6 -3 -5 -11 -10 -18 -10 -6
0 -2 7 10 15 13 9 20 22 17 30 -4 8 -1 15 5 15 6 0 10 -11 9 -24z m-65 -27
c-6 -6 -9 -19 -6 -28 4 -13 3 -14 -5 -1 -10 14 1 40 16 40 3 0 1 -5 -5 -11z
m-93 -153 c-4 -4 -16 -4 -26 2 -16 9 -14 10 8 9 15 -1 23 -6 18 -11z m-3737
-80 c9 -7 17 -22 16 -32 0 -14 -2 -15 -6 -4 -9 22 -25 30 -47 24 -17 -6 -17
-4 -5 9 17 20 19 20 42 3z m97 -78 c0 -13 -23 -5 -28 10 -2 7 2 10 12 6 9 -3
16 -11 16 -16z m85 -58 c3 -5 1 -10 -4 -10 -6 0 -11 5 -11 10 0 6 2 10 4 10 3
0 8 -4 11 -10z m65 -30 c8 -5 11 -10 5 -10 -5 0 -17 5 -25 10 -8 5 -10 10 -5
10 6 0 17 -5 25 -10z m118 -81 c-7 -5 -20 -8 -28 -8 -11 0 -10 3 3 8 17 6 16
8 -7 19 -14 6 -26 16 -26 21 0 6 16 1 36 -11 26 -15 32 -23 22 -29z m2882 11
c18 -12 2 -12 -25 0 -13 6 -15 9 -5 9 8 0 22 -4 30 -9z m-163 -37 c-4 -3 -2
-12 4 -20 9 -9 8 -13 0 -13 -6 0 -11 4 -11 10 0 5 -7 7 -16 3 -13 -5 -13 -8
-2 -15 9 -6 5 -7 -11 -3 -14 4 -21 3 -18 -2 4 -5 0 -10 -8 -10 -21 0 -19 3 22
32 36 24 54 32 40 18z m-2570 -29 c-3 -3 -12 -4 -19 -1 -8 3 -5 6 6 6 11 1 17
-2 13 -5z m2413 -48 c0 -3 -4 -8 -10 -11 -5 -3 -10 -1 -10 4 0 6 5 11 10 11 6
0 10 -2 10 -4z m-2215 -36 c3 -5 2 -10 -4 -10 -5 0 -13 5 -16 10 -3 6 -2 10 4
10 5 0 13 -4 16 -10z m-38 -16 c-3 -3 -12 -4 -19 -1 -8 3 -5 6 6 6 11 1 17 -2
13 -5z m2202 -4 c-10 -7 -49 -2 -49 5 0 2 14 3 31 3 17 -1 25 -4 18 -8z m-219
-66 c0 -2 -9 -4 -20 -4 -11 0 -20 4 -20 9 0 5 9 7 20 4 11 -3 20 -7 20 -9z
m-335 -64 c-19 -8 -19 -9 -1 -9 11 -1 17 -4 13 -7 -3 -4 -13 -4 -22 0 -20 7
-10 26 13 25 14 0 13 -2 -3 -9z m-955 -19 l25 -7 -27 -6 c-15 -3 -25 -2 -23 3
3 4 -3 10 -12 12 -12 3 -13 5 -3 5 8 0 26 -3 40 -7z m883 2 c-7 -2 -21 -2 -30
0 -10 3 -4 5 12 5 17 0 24 -2 18 -5z m-955 -10 c-10 -2 -28 -2 -40 0 -13 2 -5
4 17 4 22 1 32 -1 23 -4z m907 -2 c2 -5 -7 -6 -20 -3 -14 2 -31 0 -38 -5 -21
-17 -75 -23 -80 -10 -3 9 6 12 32 10 30 -2 32 -1 11 6 -19 6 -11 8 32 8 32 1
60 -2 63 -6z"/>
<path d="M4590 7970 c-18 -12 -2 -12 25 0 13 6 15 9 5 9 -8 0 -22 -4 -30 -9z"/>
<path d="M3974 7785 c-10 -8 -14 -15 -8 -15 6 0 17 7 24 15 16 19 9 19 -16 0z"/>
<path d="M3930 7780 c0 -5 5 -10 10 -10 6 0 10 5 10 10 0 6 -4 10 -10 10 -5 0
-10 -4 -10 -10z"/>
<path d="M3896 7751 c-4 -5 3 -7 14 -4 23 6 26 13 6 13 -8 0 -17 -4 -20 -9z"/>
<path d="M3795 7723 c-38 -20 -38 -20 -31 -32 4 -6 14 -7 22 -4 13 5 13 8 2
15 -9 7 -7 8 10 5 14 -3 20 -1 15 6 -4 6 0 8 9 5 9 -4 15 0 15 8 0 17 -5 17
-42 -3z"/>
<path d="M3370 7479 c0 -5 5 -7 10 -4 6 3 10 8 10 11 0 2 -4 4 -10 4 -5 0 -10
-5 -10 -11z"/>
<path d="M4920 7439 c-113 -10 -131 -15 -110 -30 12 -9 11 -9 -5 -4 -23 9 -34
9 -90 6 l-40 -2 30 -15 c17 -8 22 -12 13 -10 -9 3 -34 7 -55 10 l-38 6 33 -10
c17 -6 32 -12 32 -13 0 -1 -24 -3 -53 -3 -38 -1 -47 1 -32 7 17 8 16 9 -5 4
-140 -30 -170 -39 -158 -47 9 -7 5 -8 -12 -5 -14 3 -34 1 -45 -3 -13 -6 -15
-9 -5 -9 13 -1 13 -2 0 -11 -8 -5 -22 -10 -30 -10 -13 0 -13 1 0 11 22 15 -25
2 -76 -22 -34 -16 -41 -24 -38 -44 2 -22 0 -23 -17 -15 -13 7 -25 7 -37 1 -13
-7 -23 -6 -32 2 -10 9 -11 9 -6 0 4 -7 -3 -17 -16 -24 -22 -12 -22 -11 -8 6
14 17 14 17 -7 7 -12 -7 -25 -17 -28 -22 -4 -6 -10 -8 -15 -5 -8 5 -96 -37
-109 -52 -3 -3 0 -3 6 1 7 4 21 2 30 -4 16 -9 15 -10 -4 -5 -15 4 -23 2 -23
-6 0 -9 -3 -9 -14 0 -10 8 -15 9 -18 1 -2 -6 -12 -12 -23 -14 -13 -2 -20 -10
-19 -22 1 -13 -5 -20 -17 -20 -13 0 -15 3 -7 13 15 19 -72 -33 -107 -63 -16
-15 -25 -23 -18 -20 7 4 10 -1 8 -11 -2 -10 -4 -22 -4 -28 -1 -5 -5 -4 -10 3
-4 8 -11 13 -15 13 -18 -3 -20 0 -6 10 13 9 13 10 0 6 -8 -2 -14 -12 -13 -21
0 -10 -2 -15 -5 -12 -3 3 -12 0 -21 -7 -14 -11 -15 -10 -1 7 12 16 9 15 -17
-4 -32 -23 -35 -28 -37 -60 -1 -16 -27 -21 -37 -7 -3 4 -20 -8 -37 -28 -18
-19 -35 -36 -39 -38 -5 -1 -8 -7 -8 -14 0 -7 -7 -18 -15 -25 -12 -11 -12 -11
-1 5 7 9 9 17 4 17 -17 0 -79 -74 -75 -91 1 -8 -6 -24 -18 -34 -11 -10 -20
-13 -20 -7 0 6 5 14 10 17 6 3 10 11 10 17 0 7 -6 6 -15 -2 -8 -7 -15 -26 -15
-42 0 -16 -4 -27 -9 -23 -5 3 -13 -4 -16 -16 -4 -11 -9 -18 -13 -15 -3 3 -15
-2 -26 -11 -20 -18 -20 -18 -4 7 9 14 22 24 28 22 6 -1 9 2 6 7 -3 5 1 11 9
15 15 5 21 26 8 26 -12 -1 -69 -75 -65 -85 2 -4 -7 -13 -20 -19 -24 -12 -38
-46 -18 -46 6 0 10 7 8 16 -2 10 3 18 10 20 7 1 8 0 2 -3 -5 -2 -7 -9 -4 -14
3 -6 -2 -19 -11 -29 -9 -10 -15 -23 -12 -27 3 -5 -3 -9 -13 -10 -11 -1 -22 2
-25 8 -3 5 0 6 8 3 8 -3 17 2 21 12 5 14 4 15 -9 4 -8 -7 -15 -9 -15 -5 0 5
-9 0 -20 -10 -11 -10 -17 -21 -15 -25 3 -5 0 -11 -5 -13 -6 -3 -5 -4 2 -2 7 1
12 8 10 14 -1 7 2 10 8 6 7 -4 6 -13 -2 -28 -7 -12 -11 -29 -10 -37 2 -13 2
-13 -7 0 -5 8 -7 18 -5 22 3 4 0 8 -6 8 -7 0 -10 -7 -7 -15 4 -8 2 -17 -3 -20
-4 -3 -11 1 -13 7 -3 7 -6 3 -6 -10 -1 -13 -4 -21 -8 -19 -5 3 -16 -6 -26 -19
-10 -13 -13 -24 -8 -24 6 0 14 8 20 17 8 14 9 13 8 -8 -2 -20 -6 -24 -23 -21
-25 5 -40 -24 -23 -45 7 -7 9 -16 5 -20 -3 -3 -6 -1 -6 5 0 7 -4 12 -10 12 -5
0 -10 -9 -10 -21 0 -11 -4 -18 -9 -14 -5 3 -17 -2 -26 -11 -12 -12 -13 -19 -4
-30 6 -8 16 -11 21 -8 6 4 5 -4 -2 -16 -11 -20 -13 -20 -29 -6 -17 15 -19 13
-31 -24 -7 -22 -18 -40 -23 -40 -5 0 -3 -8 4 -17 12 -15 12 -16 -5 -10 -16 6
-17 5 -7 -7 9 -11 10 -20 1 -36 -6 -11 -8 -24 -5 -29 3 -5 -6 -8 -20 -6 -14 1
-23 0 -20 -3 2 -3 -1 -12 -7 -20 -7 -8 -11 -28 -10 -45 1 -20 -1 -27 -6 -19
-6 9 -12 6 -20 -13 -16 -36 -15 -43 4 -19 14 18 15 18 8 -6 -4 -14 -15 -32
-25 -41 -10 -8 -20 -28 -24 -45 -4 -24 -4 -25 4 -8 10 22 31 41 31 28 0 -4
-12 -23 -27 -43 -18 -23 -27 -46 -25 -66 1 -25 0 -27 -7 -10 -9 20 -10 20 -10
-1 -1 -12 -8 -38 -17 -59 -8 -20 -11 -34 -5 -31 5 4 3 -7 -5 -24 -12 -22 -13
-34 -4 -47 10 -16 10 -16 6 2 -3 11 -1 27 4 35 8 11 9 2 6 -29 -5 -43 -16 -70
-16 -38 0 19 -16 32 -17 14 -1 -7 -6 -34 -11 -62 -6 -27 -8 -53 -6 -57 3 -5 2
-14 -3 -20 -4 -7 -9 -22 -10 -33 -2 -11 -7 -50 -13 -87 -11 -77 -11 -497 0
-458 5 16 7 -1 6 -45 -1 -92 19 -230 37 -253 5 -7 8 -15 5 -18 -14 -13 93
-339 107 -326 5 4 5 2 1 -5 -10 -18 95 -236 107 -221 6 9 7 7 3 -5 -5 -17 57
-142 90 -178 8 -8 14 -20 14 -26 0 -6 3 -13 8 -15 4 -1 15 -16 24 -33 10 -16
22 -29 28 -27 7 1 8 -3 4 -9 -3 -6 -2 -14 3 -18 6 -3 26 -31 46 -61 20 -30 58
-79 86 -109 45 -49 52 -53 68 -40 16 13 17 12 5 -2 -15 -20 -5 -52 15 -45 8 3
12 2 9 -3 -9 -14 142 -163 156 -155 7 4 10 3 5 -1 -7 -9 20 -45 34 -45 5 0 5
7 2 17 -4 11 -3 14 6 9 6 -4 9 -16 6 -26 -5 -17 19 -37 28 -22 2 4 3 2 1 -4
-1 -6 17 -26 42 -45 24 -18 44 -36 44 -41 0 -4 4 -8 9 -8 5 0 44 -23 86 -50
41 -28 80 -48 86 -45 5 4 8 1 7 -7 -2 -7 5 -12 15 -11 10 0 16 -2 13 -5 -8 -7
55 -36 73 -33 8 1 10 -2 6 -9 -5 -9 -1 -10 16 -5 18 5 20 4 9 -4 -11 -8 -4
-14 35 -30 28 -12 58 -26 68 -31 10 -6 22 -8 27 -5 6 4 10 2 10 -4 0 -6 7 -7
17 -4 11 4 14 3 9 -5 -4 -7 -5 -12 -3 -12 2 0 35 -12 73 -26 141 -52 315 -105
325 -98 4 2 20 -1 36 -7 15 -6 37 -13 48 -15 11 -2 33 -6 49 -10 21 -5 27 -3
21 6 -5 9 -4 11 4 6 6 -4 9 -11 6 -16 -3 -4 19 -11 48 -14 62 -7 422 -16 390
-9 -13 2 -23 9 -23 15 0 5 7 7 16 4 9 -3 22 -6 30 -6 9 0 13 -3 11 -7 -3 -5
16 -6 41 -4 l47 5 -47 6 c-67 8 -66 15 3 15 38 0 60 -4 64 -12 2 -7 17 -13 32
-12 24 0 25 1 8 8 -16 7 -10 9 25 14 25 3 59 8 75 12 l30 6 -30 -15 -30 -15
30 7 c17 4 49 7 72 7 23 0 37 3 30 7 -8 5 -6 8 6 8 9 0 17 4 17 9 0 5 18 7 40
4 26 -4 40 -2 40 5 0 6 10 16 21 23 17 9 20 8 14 -2 -6 -9 0 -11 25 -6 18 4
40 7 49 7 14 1 14 2 -2 14 -11 8 -14 17 -8 20 5 4 12 2 16 -4 3 -5 16 -15 28
-21 12 -7 19 -8 15 -4 -14 15 25 34 46 23 13 -7 16 -7 12 1 -7 10 8 14 56 14
10 0 15 3 13 7 -3 5 -2 10 2 13 5 2 2 2 -4 1 -7 -2 -13 3 -13 11 0 8 7 15 16
15 8 0 13 4 10 9 -4 5 4 7 16 3 14 -3 19 -1 14 6 -5 8 -1 10 10 5 14 -5 13 -8
-6 -18 -19 -10 -20 -13 -6 -18 9 -4 16 -2 16 3 0 6 3 9 8 9 4 -1 16 -1 27 1
l20 1 -20 10 c-17 8 -15 9 9 5 28 -4 62 15 49 28 -3 3 3 9 13 13 10 3 23 12
27 20 4 7 19 13 33 13 14 0 23 4 20 8 -3 5 8 9 24 9 16 0 27 -4 24 -9 -3 -4
-12 -8 -20 -8 -8 0 -22 -4 -32 -9 -9 -5 -25 -12 -34 -15 -10 -3 -18 -13 -18
-22 0 -13 3 -14 14 -5 8 6 20 10 27 9 8 -2 13 3 11 10 -1 7 11 15 28 19 17 3
33 9 36 14 2 4 12 5 22 2 15 -6 15 -5 -2 12 -18 18 -17 19 20 30 22 6 54 20
73 29 25 13 36 15 41 6 5 -8 9 -7 13 4 4 9 1 16 -5 16 -15 0 33 36 57 42 11 3
29 9 40 14 18 7 19 6 6 -12 -8 -10 -3 -8 11 6 14 14 25 26 24 27 0 1 -25 -5
-55 -13 -30 -7 -57 -12 -59 -9 -10 10 8 17 52 22 41 5 94 42 99 69 1 5 15 10
31 12 28 3 29 2 15 -15 -12 -16 -12 -17 2 -6 9 7 18 11 21 8 2 -3 15 7 29 23
l24 27 -26 -23 c-21 -18 -28 -20 -32 -9 -3 8 -1 20 4 28 7 11 9 11 9 1 0 -7 5
-10 11 -7 7 5 4 14 -8 27 -18 21 -18 21 14 4 43 -22 50 -20 22 4 l-24 20 27
-10 c23 -8 26 -7 21 7 -4 10 1 21 13 30 16 12 17 15 4 23 -8 5 -11 13 -6 17 5
4 11 2 13 -4 6 -16 35 -17 50 -2 8 8 13 8 18 -1 5 -8 10 -8 21 1 11 9 12 15 3
26 -9 10 -8 18 6 33 10 11 13 20 7 20 -6 0 -14 -4 -17 -10 -3 -6 -12 -10 -18
-10 -7 0 -6 4 3 10 13 9 13 11 0 20 -11 7 -4 8 23 4 20 -3 36 -2 35 3 -1 4 6
21 16 36 17 24 17 30 5 38 -11 8 -10 9 5 7 10 -2 23 6 30 16 21 37 51 61 76
62 14 1 19 0 13 -3 -7 -2 -13 -10 -13 -16 0 -15 18 3 34 35 7 12 19 22 26 20
11 -3 11 0 0 13 -11 13 -11 18 0 28 10 10 11 9 5 -2 -6 -10 -4 -12 4 -6 7 4
11 18 8 31 -2 13 -1 21 4 19 11 -7 40 6 34 15 -3 5 -1 11 5 15 5 3 10 15 10
25 0 10 4 21 10 25 5 3 8 -7 7 -24 -1 -16 -6 -27 -11 -23 -5 3 -6 0 -2 -6 4
-6 14 -8 23 -5 10 4 12 8 6 10 -14 5 -7 30 16 57 15 18 15 19 -6 14 -13 -4
-27 0 -34 8 -9 11 -5 13 20 9 17 -2 35 -6 40 -9 15 -9 45 44 32 57 -18 18 -13
31 7 16 15 -13 16 -12 3 4 -9 12 -17 15 -24 8 -7 -7 -7 -14 1 -23 7 -9 6 -20
-4 -38 -13 -23 -14 -22 -9 29 2 29 6 56 10 59 11 12 35 10 35 -3 0 -7 6 -15
14 -18 10 -4 12 0 9 14 -3 11 -9 21 -13 24 -11 7 -1 46 17 66 7 9 11 25 7 35
-5 16 -4 16 5 4 9 -13 11 -12 11 3 0 10 5 15 10 12 6 -3 10 0 10 8 0 7 15 26
33 41 33 28 34 29 24 77 -9 45 -8 52 13 74 12 13 19 28 16 34 -5 7 4 9 24 7
29 -3 30 -2 15 14 -20 22 -28 186 -9 183 6 -1 17 9 25 23 9 17 19 24 31 21 10
-3 19 0 19 6 1 7 2 28 4 47 2 19 6 48 10 64 6 22 5 27 -5 21 -8 -5 -11 -3 -8
5 8 25 26 21 33 -7 4 -15 9 -23 12 -16 2 6 -3 26 -12 43 -13 24 -15 47 -10 98
10 111 17 147 31 155 23 13 36 86 29 157 -4 36 -8 90 -10 120 -1 30 -2 72 -3
93 -1 26 -6 36 -13 31 -8 -5 -10 1 -6 18 6 24 -11 144 -32 227 -6 23 -16 59
-21 81 -8 27 -15 38 -23 33 -9 -5 -9 -3 -1 8 14 18 -22 143 -38 133 -7 -4 -8
-2 -4 5 10 16 -3 53 -16 45 -7 -5 -9 -1 -5 9 8 21 -63 188 -76 180 -6 -3 -7
-1 -4 5 8 11 -1 42 -12 42 -9 0 -7 -43 3 -58 4 -7 12 -9 18 -6 7 4 8 2 4 -4
-4 -7 -14 -12 -22 -12 -14 0 -18 15 -15 55 2 17 0 17 -8 5 -7 -9 -11 -10 -11
-3 0 6 5 15 10 18 6 4 7 11 4 17 -4 7 -2 8 4 4 8 -5 10 -2 6 9 -4 9 -9 13 -12
11 -12 -12 -32 17 -26 39 6 25 -10 43 -22 24 -5 -8 -3 -9 6 -4 9 6 11 4 5 -4
-6 -10 -11 -9 -23 3 -13 13 -14 18 -3 28 10 11 11 9 6 -7 -5 -16 -5 -17 3 -5
6 8 8 19 4 25 -45 74 -114 175 -120 175 -4 0 -8 -9 -8 -20 0 -22 12 -27 18 -8
3 8 6 7 10 -4 5 -11 0 -15 -15 -14 -13 1 -21 8 -19 15 1 7 -3 20 -10 29 -9 10
-9 13 -1 9 22 -14 23 12 1 27 -12 9 -18 16 -13 16 6 0 1 7 -9 15 -11 8 -16 15
-12 15 5 0 3 7 -4 15 -13 16 -30 11 -30 -8 0 -8 3 -8 9 1 6 11 9 9 13 -6 3
-11 -2 -23 -12 -30 -13 -8 -17 -8 -17 1 1 38 -4 49 -19 43 -24 -9 -44 12 -44
45 0 15 -4 30 -8 33 -5 3 -7 -9 -6 -27 l3 -32 -7 30 c-6 24 -12 29 -32 27 -24
-2 -24 -2 -5 12 28 20 65 1 65 -33 0 -30 16 -59 26 -48 4 3 2 13 -4 20 -7 8
-9 17 -6 20 4 3 15 -4 25 -16 10 -12 18 -17 19 -10 0 6 -12 21 -26 32 -15 12
-24 21 -20 21 9 0 -5 16 -99 116 -74 78 -105 100 -105 73 0 -6 7 -8 16 -5 10
4 13 2 8 -6 -4 -6 -3 -8 4 -4 6 3 13 3 16 -2 10 -16 -29 -9 -49 9 -11 10 -24
18 -30 18 -5 1 -10 4 -10 9 0 4 -4 12 -8 19 -4 6 -3 14 3 18 5 3 10 0 10 -8 0
-19 26 -40 40 -32 7 4 -12 28 -46 61 -31 30 -59 52 -63 49 -3 -4 3 -13 13 -21
20 -14 20 -14 0 -15 -18 0 -18 -1 1 -9 16 -7 16 -9 4 -9 -9 -1 -27 7 -40 17
-17 15 -19 21 -9 27 8 5 11 4 7 -2 -4 -6 0 -14 9 -17 12 -5 15 -2 10 10 -3 8
-6 20 -6 25 0 6 -7 6 -19 0 -13 -7 -24 -6 -37 4 -15 10 -22 11 -33 2 -12 -10
-13 -9 -6 2 6 10 4 13 -6 9 -10 -4 -15 1 -15 13 0 17 2 17 18 2 14 -12 18 -13
18 -3 0 9 9 5 24 -9 15 -14 26 -19 31 -12 6 11 5 12 -17 15 -7 1 -12 7 -11 13
2 7 -14 25 -35 41 -38 30 -82 56 -82 49 0 -3 -16 10 -37 29 -20 18 -40 31 -46
27 -5 -3 -3 -9 4 -14 10 -6 6 -8 -11 -5 -14 2 -24 9 -22 16 2 7 -5 9 -20 5
-20 -5 -21 -5 -5 5 14 9 22 9 33 0 7 -7 14 -9 14 -4 0 14 -79 56 -92 48 -7 -4
-8 -3 -4 4 10 16 -107 72 -126 61 -7 -5 -20 -8 -28 -8 -8 0 -4 5 10 10 l25 11
-40 20 c-26 14 -40 17 -43 9 -2 -6 -8 -11 -13 -11 -4 0 -6 6 -3 13 6 17 -128
73 -147 62 -7 -5 -10 -4 -5 3 4 7 -15 17 -51 28 -32 9 -72 23 -90 31 -17 7
-35 12 -40 11 -4 -1 -30 5 -58 14 -64 21 -125 32 -107 20 11 -7 11 -10 -3 -15
-9 -4 -13 -3 -10 3 8 13 -27 30 -72 35 -21 3 -69 9 -108 15 -102 14 -385 20
-495 9z m-47 -26 c-7 -2 -19 -2 -25 0 -7 3 -2 5 12 5 14 0 19 -2 13 -5z m-106
-19 c-3 -3 -12 -4 -19 -1 -8 3 -5 6 6 6 11 1 17 -2 13 -5z m110 0 c-3 -3 -12
-4 -19 -1 -8 3 -5 6 6 6 11 1 17 -2 13 -5z m688 -4 c-3 -5 -10 -10 -16 -10 -5
0 -9 5 -9 10 0 6 7 10 16 10 8 0 12 -4 9 -10z m-742 -7 c-7 -2 -21 -2 -30 0
-10 3 -4 5 12 5 17 0 24 -2 18 -5z m664 1 c-3 -3 -12 -4 -19 -1 -8 3 -5 6 6 6
11 1 17 -2 13 -5z m300 -51 c-9 -2 -15 -9 -12 -14 4 -5 1 -9 -4 -9 -12 0 -14
13 -4 23 3 4 13 6 22 6 13 -1 12 -2 -2 -6z m58 -13 c14 -6 15 -9 5 -10 -12 0
-11 -4 4 -15 18 -13 18 -14 -2 -12 -11 0 -19 4 -16 8 2 4 -3 15 -12 23 -17 17
-10 19 21 6z m-1409 -15 c-11 -8 -29 -15 -40 -14 -15 0 -10 4 14 13 46 18 48
18 26 1z m-129 -21 c-3 -3 -12 -4 -19 -1 -8 3 -5 6 6 6 11 1 17 -2 13 -5z
m1723 -24 c8 -5 11 -10 5 -10 -5 0 -17 5 -25 10 -8 5 -10 10 -5 10 6 0 17 -5
25 -10z m60 -30 c0 -5 -2 -10 -4 -10 -3 0 -8 5 -11 10 -3 6 -1 10 4 10 6 0 11
-4 11 -10z m-70 -4 c0 -3 -4 -8 -10 -11 -5 -3 -10 -1 -10 4 0 6 5 11 10 11 6
0 10 -2 10 -4z m-1985 -66 c-27 -12 -43 -12 -25 0 8 5 22 9 30 9 10 0 8 -3 -5
-9z m2222 -5 c20 -8 34 -18 30 -21 -3 -3 -14 -1 -25 5 -26 14 -35 14 -27 1 4
-6 -1 -7 -11 -3 -13 5 -14 8 -5 11 11 4 11 6 0 13 -22 14 -2 10 38 -6z m111
-70 c-2 -1 -14 -8 -28 -14 -23 -11 -23 -11 -6 3 11 9 15 20 10 28 -6 10 -4 10
9 -1 10 -8 16 -15 15 -16z m-2512 -27 c4 -6 3 -8 -4 -4 -6 3 -17 -1 -25 -9
-17 -17 -27 -19 -27 -7 0 7 25 24 47 31 1 1 5 -4 9 -11z m59 -8 c3 -6 -1 -7
-9 -4 -18 7 -21 14 -7 14 6 0 13 -4 16 -10z m2601 -66 c-5 -14 -4 -15 9 -4 12
10 15 10 15 -2 0 -19 -37 -20 -44 -2 -3 9 -1 12 4 9 6 -3 10 -1 10 4 0 6 3 11
6 11 3 0 3 -7 0 -16z m-2691 -4 c3 -5 1 -10 -4 -10 -6 0 -11 5 -11 10 0 6 2
10 4 10 3 0 8 -4 11 -10z m1361 -38 c-10 -2 -22 0 -28 6 -6 6 0 7 19 4 21 -5
23 -7 9 -10z m107 1 c23 3 35 2 28 -3 -16 -9 -2 -15 67 -25 23 -4 40 -10 37
-15 -3 -5 14 -11 37 -15 69 -12 73 -13 155 -35 43 -13 100 -31 126 -41 55 -22
60 -23 52 -9 -3 6 -1 10 4 10 6 0 11 -7 11 -16 0 -14 3 -14 15 -4 13 11 15 10
10 -1 -3 -9 14 -22 52 -39 78 -34 77 -34 68 -21 -4 7 -17 16 -29 21 -16 7 -17
9 -4 9 21 1 59 -29 52 -40 -9 -15 71 -49 87 -37 11 8 9 8 -6 3 -15 -5 -17 -3
-8 6 18 18 37 1 21 -19 -7 -9 -8 -13 -2 -9 6 4 19 -2 29 -13 23 -25 84 -58 65
-35 -11 13 -10 14 3 9 8 -3 18 -12 21 -20 3 -8 11 -14 17 -14 8 0 8 4 -1 15
-10 12 -10 15 1 15 11 0 11 3 -1 11 -13 9 -13 10 0 6 8 -2 13 -12 12 -22 -3
-15 -1 -17 10 -8 11 9 14 5 15 -20 1 -24 -1 -27 -9 -14 -5 10 -14 15 -19 11
-16 -10 26 -34 50 -29 12 2 19 0 16 -6 -8 -12 61 -79 77 -75 7 1 10 1 6 -1 -4
-3 48 -58 114 -124 88 -85 125 -116 133 -109 9 7 16 6 24 -4 9 -11 8 -13 -6
-12 -10 0 -18 -3 -18 -9 0 -5 5 -9 11 -7 7 1 15 -2 19 -8 4 -6 3 -10 -2 -9
-21 4 -24 -3 -6 -18 10 -10 13 -14 6 -9 -8 5 -5 -10 8 -39 27 -62 24 -170 -7
-232 -12 -23 -18 -41 -15 -38 4 2 7 -5 7 -15 0 -12 -4 -16 -11 -10 -11 9 -73
-46 -63 -55 3 -3 17 8 31 24 20 24 26 27 31 15 3 -8 2 -12 -4 -9 -6 3 -10 -4
-10 -17 0 -18 -2 -20 -10 -8 -9 14 -14 7 -11 -13 1 -5 -3 -6 -9 -2 -5 3 -10 0
-10 -7 0 -8 -4 -6 -11 4 -9 17 -11 17 -36 1 -36 -24 -57 -28 -138 -27 -90 1
-154 28 -213 92 -25 26 -42 42 -38 35 3 -6 1 -15 -5 -19 -8 -4 -9 -3 -5 4 9
15 -6 16 -20 2 -7 -7 -11 -6 -11 4 0 8 3 15 6 14 21 -2 22 4 5 18 -10 8 -13
12 -6 9 11 -6 12 -3 2 14 -6 12 -15 19 -21 16 -5 -4 -8 -3 -7 2 2 4 -2 8 -7 8
-5 0 -9 -4 -7 -9 2 -5 -4 -4 -12 4 -13 10 -16 10 -16 -1 0 -11 -2 -11 -9 0 -6
9 -6 22 1 34 6 12 6 17 0 13 -5 -3 -16 2 -23 11 -12 15 -12 16 6 9 17 -6 17
-4 -4 15 -24 22 -66 35 -55 17 4 -5 12 -7 18 -5 7 3 13 0 13 -7 0 -22 -40 -11
-44 12 -1 12 2 22 8 22 11 0 2 10 -41 45 -14 11 -19 13 -13 4 11 -13 9 -15 -8
-14 -12 1 -25 9 -31 18 -7 13 -5 16 9 11 15 -5 16 -4 3 5 -8 6 -24 11 -35 11
-14 0 -16 3 -7 8 15 10 -74 57 -103 54 -12 -1 -15 1 -6 5 22 9 -119 75 -149
69 -14 -3 -19 -3 -11 1 22 9 -47 34 -76 26 -18 -4 -24 -2 -19 5 5 8 2 10 -8 6
-9 -3 -16 -1 -16 6 0 6 -8 10 -17 9 -10 -1 -20 0 -23 1 -28 10 -92 13 -240 13
-188 -1 -260 -8 -260 -27 0 -6 -4 -6 -9 3 -7 10 -16 11 -37 4 -28 -9 -39 -32
-21 -44 5 -3 2 -9 -6 -12 -10 -4 -14 1 -13 16 1 14 -6 23 -18 25 -11 3 -16 0
-12 -7 4 -6 0 -14 -9 -17 -13 -6 -14 -9 -3 -16 9 -6 5 -7 -11 -3 -18 6 -22 4
-16 -6 5 -8 4 -11 -1 -6 -5 5 -9 14 -9 19 0 6 -6 13 -14 16 -8 3 -11 0 -7 -7
5 -7 -2 -11 -19 -11 -14 0 -28 -7 -31 -15 -5 -12 -10 -13 -20 -4 -11 9 -14 9
-14 0 0 -7 -7 -20 -16 -28 -12 -13 -20 -14 -33 -6 -13 8 -26 6 -51 -8 -19 -10
-30 -18 -25 -19 6 0 2 -5 -8 -11 -9 -5 -22 -7 -27 -4 -6 4 -10 3 -9 -2 3 -19
-2 -33 -12 -33 -6 0 -9 7 -5 15 4 12 2 13 -14 2 -23 -14 -27 -47 -6 -47 8 0
17 -4 20 -9 3 -5 -5 -8 -18 -7 -13 0 -22 4 -19 9 7 12 -12 8 -25 -5 -9 -9 -12
-8 -12 6 0 16 -1 16 -17 1 -9 -9 -17 -29 -19 -43 -1 -15 -2 -31 -3 -36 -1 -5
-10 -1 -21 9 -20 18 -17 40 4 32 7 -3 13 1 13 9 0 12 -3 12 -21 0 -12 -8 -20
-21 -20 -30 1 -9 -2 -16 -8 -16 -5 0 -6 -6 -2 -12 6 -9 3 -9 -9 0 -14 12 -16
11 -12 -7 2 -11 0 -23 -6 -26 -5 -4 -5 -15 2 -28 7 -12 8 -19 4 -15 -5 4 -15
2 -24 -4 -13 -10 -14 -10 -3 2 20 23 14 35 -8 15 -24 -22 -53 -29 -44 -12 3 7
-1 4 -9 -5 -8 -10 -17 -15 -21 -11 -4 4 -4 -1 0 -11 6 -15 4 -17 -6 -11 -9 6
-11 4 -5 -5 6 -10 11 -10 20 4 12 15 13 15 19 -1 4 -10 4 -14 0 -10 -4 4 -13
2 -21 -4 -10 -9 -17 -8 -30 2 -15 13 -15 12 -5 -8 13 -23 -1 -43 -14 -22 -5 8
-3 9 7 4 8 -5 11 -5 7 -1 -14 16 -23 -1 -23 -43 -1 -36 -5 -45 -20 -47 -11 -2
-22 2 -26 8 -4 6 -10 2 -14 -11 -3 -12 -10 -19 -15 -16 -5 3 -11 1 -15 -5 -3
-5 -2 -10 3 -10 6 0 9 -11 8 -24 0 -15 -6 -22 -14 -18 -7 2 -10 12 -7 21 5 12
3 13 -5 5 -9 -9 -9 -17 0 -34 8 -15 8 -20 1 -16 -6 4 -11 2 -11 -4 0 -7 -6
-10 -13 -7 -9 3 -13 -3 -13 -17 1 -11 -3 -20 -9 -19 -5 1 -11 -13 -12 -30 -4
-49 -13 -78 -23 -72 -5 3 -12 0 -16 -6 -3 -6 -1 -15 6 -19 9 -5 9 -9 1 -14 -6
-4 -16 -4 -23 0 -7 4 -8 3 -4 -4 4 -7 3 -12 -2 -12 -5 0 -7 -12 -5 -27 4 -22
2 -25 -6 -13 -8 11 -10 5 -7 -27 2 -23 -1 -47 -5 -55 -7 -10 -9 -8 -10 7 -1
17 -2 16 -9 -5 -11 -35 -12 -60 -1 -60 5 0 7 10 4 23 -3 12 -2 19 2 15 11 -10
7 -95 -5 -133 -10 -30 -10 -30 -5 5 3 23 2 30 -4 20 -5 -8 -12 -33 -15 -55 -5
-31 -4 -36 4 -20 9 17 9 17 3 -5 -11 -42 -10 -251 2 -330 7 -41 13 -70 14 -65
1 6 5 3 10 -4 6 -9 6 -22 0 -32 -14 -26 -11 -33 8 -18 15 13 15 12 4 -10 -11
-20 -9 -34 9 -90 22 -66 38 -97 27 -53 -5 23 -5 23 14 6 14 -13 16 -20 7 -25
-9 -6 -8 -12 3 -25 8 -11 9 -15 2 -10 -16 9 -7 -19 18 -55 10 -14 15 -30 11
-34 -4 -5 -1 -5 6 -1 6 4 12 2 12 -3 0 -6 5 -11 11 -11 6 0 8 7 4 18 -5 13 -3
14 5 6 8 -8 9 -18 2 -30 -11 -23 -5 -47 11 -37 7 4 8 0 4 -11 -5 -11 -3 -15 5
-10 8 5 9 2 5 -10 -4 -10 -3 -15 3 -11 6 3 10 0 10 -8 0 -8 7 -18 16 -21 8 -3
12 -11 9 -16 -4 -6 -1 -9 7 -8 7 2 13 -4 13 -12 0 -8 8 -24 18 -34 9 -11 17
-24 17 -30 0 -5 3 -6 7 -3 3 4 12 -1 19 -11 10 -14 15 -15 25 -4 7 6 16 12 20
12 10 0 5 -48 -6 -58 -4 -4 -5 -1 0 7 5 9 4 12 -3 7 -8 -5 -10 -1 -6 11 5 15
4 15 -5 3 -7 -11 -5 -20 11 -37 17 -18 24 -20 42 -11 20 11 20 10 6 -8 -15
-18 -14 -18 14 0 16 10 26 13 22 8 -3 -6 -2 -13 3 -16 11 -7 9 -25 -3 -45 -6
-10 -5 -12 2 -7 7 4 12 2 12 -4 0 -6 5 -8 10 -5 6 3 10 -2 11 -12 0 -10 3 -13
5 -6 3 7 12 9 21 6 12 -5 14 -3 8 8 -6 11 -5 12 5 2 16 -15 23 -46 9 -37 -5 3
-6 10 -3 16 5 7 2 8 -5 3 -9 -5 -5 -15 15 -36 15 -15 31 -26 36 -23 12 7 39
-16 32 -27 -3 -5 3 -6 12 -2 12 4 15 3 10 -5 -4 -7 -1 -12 7 -12 8 0 20 -7 27
-15 7 -8 18 -15 24 -15 6 0 2 7 -8 15 -11 8 -15 15 -8 15 6 0 20 -9 30 -20 12
-13 26 -18 38 -14 14 4 15 3 5 -4 -12 -9 25 -27 97 -48 7 -2 10 -9 7 -14 -4
-6 -3 -10 2 -9 24 4 93 -2 92 -8 -3 -21 4 -22 36 -9 20 9 43 12 52 9 11 -4 14
-3 9 5 -5 8 -2 10 9 6 13 -5 8 -11 -19 -28 l-35 -21 47 -1 c26 0 63 -8 81 -17
41 -21 66 -22 31 -2 -23 13 -23 14 -4 15 11 0 25 -5 31 -11 15 -15 298 -13
322 3 15 9 28 9 55 1 20 -6 34 -7 30 -2 -3 5 11 9 32 9 31 0 35 2 24 15 -11
14 -6 15 49 11 33 -3 61 -1 61 4 0 5 -6 7 -14 4 -8 -3 -17 -1 -21 5 -4 7 2 10
16 8 13 -2 25 -9 27 -15 2 -7 10 -12 18 -12 17 0 19 -31 3 -47 -11 -11 -7
-449 5 -523 3 -19 3 -27 0 -17 -5 16 -7 16 -22 -3 -14 -18 -32 -22 -110 -27
-51 -3 -88 -9 -82 -13 14 -9 -50 -20 -64 -12 -12 7 -325 9 -321 2 2 -4 -12 -7
-31 -8 -40 -3 -46 15 -6 20 15 2 -3 4 -40 5 -36 1 -76 6 -87 12 -11 7 -32 9
-46 5 -16 -4 -25 -2 -25 6 0 7 -8 10 -20 7 -11 -3 -23 -1 -26 5 -3 5 -12 7
-20 4 -8 -3 -14 -2 -14 3 0 4 -6 8 -12 9 -33 2 -75 15 -96 28 -13 8 -32 12
-42 9 -12 -4 -20 -2 -20 4 0 6 -14 11 -30 11 -18 0 -33 6 -36 15 -5 11 -10 13
-19 5 -7 -6 -25 -8 -40 -4 l-28 7 24 14 24 13 -26 -6 c-18 -4 -28 -1 -32 9 -3
8 -19 17 -37 20 -22 5 -29 11 -24 19 5 8 0 7 -11 -2 -17 -13 -18 -13 -13 1 4
11 0 15 -16 15 -12 -1 -20 4 -18 12 2 10 -2 10 -20 1 -22 -12 -22 -11 -8 6 8
10 10 16 4 12 -7 -4 -17 0 -24 8 -8 9 -25 13 -50 11 -32 -3 -37 -2 -27 9 8 9
18 10 30 4 27 -15 20 -3 -10 17 -16 10 -36 17 -46 17 -10 -1 -15 3 -11 9 4 7
-2 8 -17 3 -22 -7 -23 -7 -9 10 8 11 11 16 5 13 -12 -7 -78 36 -73 48 4 10
-81 36 -93 28 -5 -3 -6 2 -3 10 4 10 1 16 -7 16 -7 0 -9 3 -6 7 4 3 17 -2 29
-13 20 -16 21 -17 9 -1 -8 10 -28 27 -44 39 l-29 21 7 -22 c4 -12 2 -21 -4
-21 -14 0 -15 37 -1 45 5 3 -8 21 -28 40 -33 30 -38 32 -49 18 -14 -18 -43
-11 -43 10 0 8 6 20 13 26 10 8 14 7 14 -4 0 -8 -4 -12 -9 -9 -4 3 -8 -2 -8
-10 0 -17 19 -22 21 -6 5 34 3 45 -8 45 -15 0 -54 50 -45 59 3 4 -1 4 -9 1
-11 -4 -19 1 -23 17 -7 22 -7 22 -17 3 -7 -15 -7 -12 -3 14 4 21 2 31 -4 27
-9 -5 -24 16 -26 38 -1 12 -34 32 -41 25 -9 -9 6 -40 16 -33 5 3 6 10 3 16 -4
7 -2 8 5 4 9 -6 9 -11 1 -21 -8 -10 -7 -14 2 -18 7 -3 2 -4 -12 -3 -20 2 -25
9 -26 37 -3 49 -3 51 -12 45 -4 -2 -9 5 -9 17 -2 17 0 18 7 7 5 -8 11 -12 14
-10 2 3 -2 14 -10 24 -8 11 -14 14 -14 7 0 -7 -5 -9 -10 -6 -6 4 -8 14 -5 24
3 9 -2 26 -11 37 -15 18 -15 18 -5 -3 14 -28 14 -36 0 -27 -6 3 -3 -8 6 -26
17 -33 15 -42 -10 -46 -12 -2 -13 2 -4 18 8 14 7 25 -4 41 -9 14 -11 32 -7 48
8 29 -12 80 -24 60 -4 -6 -13 -11 -19 -11 -7 0 -6 4 3 10 8 5 11 12 7 16 -4 4
-17 -1 -28 -12 l-22 -19 17 32 c18 37 22 67 5 43 -8 -12 -10 -8 -7 17 3 18 1
30 -2 28 -9 -6 -32 44 -25 55 6 10 -23 22 -35 15 -11 -7 -8 48 2 56 7 4 -26
116 -37 128 -9 8 3 -46 14 -67 14 -26 5 -74 -10 -51 -4 8 -6 24 -3 35 3 12 1
25 -5 28 -6 4 -11 27 -11 52 0 24 -4 44 -8 44 -15 0 -31 62 -28 108 2 26 1 33
-1 15 -2 -17 -11 -37 -19 -43 -17 -15 -18 -6 -2 20 10 15 9 24 -2 45 -11 21
-12 32 -1 61 15 41 6 138 -10 113 -6 -10 -9 -1 -9 29 0 23 -4 42 -10 42 -5 0
-10 18 -10 40 0 23 5 40 11 40 8 0 9 43 4 155 -6 132 -5 157 8 170 14 13 16
13 20 -7 3 -17 5 -15 6 9 0 17 -4 35 -9 38 -6 4 -9 42 -8 94 2 69 5 85 15 72
9 -13 11 -9 8 19 -1 19 4 44 11 54 7 11 11 30 8 42 -4 16 0 24 15 29 12 3 21
12 22 18 1 7 4 1 8 -13 7 -24 8 -24 12 6 3 20 1 30 -5 28 -7 -3 -12 15 -13 43
-2 43 2 51 42 94 50 54 50 52 33 79 -11 17 -10 22 0 29 7 4 10 15 6 26 -5 13
-3 16 7 13 19 -6 20 -66 2 -101 -15 -30 -12 -44 6 -32 6 3 9 10 6 15 -3 5 3
27 15 49 24 48 25 61 4 61 -10 0 -14 6 -10 15 3 8 -2 18 -10 23 -11 6 -4 8 21
8 29 -1 35 -4 31 -19 -2 -9 0 -15 5 -11 5 3 9 14 9 24 0 14 5 18 18 14 12 -4
13 -3 4 3 -7 5 -10 17 -7 25 4 9 2 19 -4 23 -22 13 -10 22 24 18 24 -2 35 1
35 10 0 7 7 22 16 33 8 10 12 13 8 5 -4 -9 -3 -12 4 -7 6 4 10 28 8 59 -3 50
-1 54 26 70 22 13 28 23 26 44 -3 24 0 28 26 28 30 1 60 31 52 52 -3 7 -1 13
4 13 6 0 10 -4 10 -10 0 -5 5 -10 11 -10 6 0 9 7 5 15 -6 17 9 21 19 5 9 -15
-14 -40 -31 -33 -8 3 -14 0 -14 -6 0 -21 26 -11 68 27 37 34 41 41 27 52 -10
8 -15 9 -15 1 0 -6 5 -11 11 -11 5 0 7 -4 4 -10 -12 -20 -21 -9 -22 26 0 25 2
32 8 23 8 -12 11 -12 19 1 7 11 5 17 -8 22 -10 5 -5 6 13 3 44 -7 59 6 52 46
-3 19 -3 28 0 22 6 -17 18 -16 38 3 9 9 19 14 22 10 3 -3 -6 -16 -20 -29 -15
-12 -27 -28 -27 -35 0 -7 -14 -19 -32 -26 -30 -13 -31 -14 -10 -25 19 -10 21
-9 15 6 -5 13 -3 15 11 10 9 -4 15 -3 12 2 -8 12 52 76 62 67 4 -4 -1 -12 -11
-17 -9 -6 -17 -15 -17 -21 0 -6 11 1 24 15 13 14 27 23 32 19 4 -4 4 -1 0 6
-4 7 -11 10 -15 8 -4 -3 -8 2 -8 10 0 10 4 11 11 4 14 -14 29 -13 20 3 -5 8
-2 8 9 -2 15 -11 17 -11 17 1 0 8 18 23 40 33 22 10 40 22 40 28 0 5 -7 4 -15
-3 -8 -6 -20 -8 -26 -4 -8 4 -9 3 -5 -4 4 -7 3 -12 -3 -12 -5 0 -9 9 -8 19 1
13 5 17 12 11 6 -5 17 -5 25 0 9 5 19 5 27 -2 11 -8 12 -7 6 8 -6 16 -5 17 9
6 13 -10 18 -10 24 -1 4 7 3 9 -3 6 -6 -4 -13 0 -17 8 -3 8 -2 14 2 13 4 -1
17 3 30 10 12 7 34 11 50 10 19 -2 26 1 24 11 -2 9 3 11 13 7 10 -3 14 -2 10
5 -4 6 -13 8 -21 5 -8 -3 -14 -1 -14 4 0 13 16 13 42 -1 16 -9 19 -8 13 2 -6
9 -3 10 10 5 15 -5 16 -4 5 9 -11 13 -10 14 4 9 21 -8 21 5 -1 22 -26 18 -3
41 24 25 16 -11 16 -11 -4 -6 -14 4 -23 2 -23 -4 0 -12 -1 -12 60 -16 25 -1
39 0 31 3 -11 4 -11 6 0 14 10 6 7 7 -10 3 -15 -5 -21 -3 -17 3 3 6 -2 12 -11
14 -10 2 5 4 32 3 28 0 56 -4 64 -9 10 -7 12 -6 6 4 -6 9 -2 10 16 5 13 -4 21
-4 17 0 -11 12 12 35 34 35 14 0 18 5 14 15 -6 16 9 21 18 6 3 -5 15 -11 26
-14 11 -3 18 -2 15 3 -7 11 31 20 85 20 35 0 42 3 30 11 -12 8 -9 9 13 5 19
-5 26 -3 25 6 -2 7 5 12 15 11 36 -6 43 -6 69 -5 27 2 33 26 10 40 -6 4 8 8
31 8 30 1 36 -1 22 -7 -16 -6 -12 -8 16 -8 20 -1 38 2 42 5 3 3 28 7 54 9 l48
3 -50 -14 -50 -13 50 4 c28 3 91 5 140 5 105 1 129 6 121 26 -5 12 -2 12 16 3
11 -6 39 -9 61 -6z m124 1 c-3 -3 -12 -4 -19 -1 -8 3 -5 6 6 6 11 1 17 -2 13
-5z m1168 -4 c4 -6 10 -8 15 -5 5 3 11 1 14 -4 8 -12 -14 -8 -39 7 -11 6 -15
12 -8 12 6 0 15 -5 18 -10z m-2928 -19 c-10 -12 -9 -14 7 -8 15 6 17 5 7 -7
-9 -11 -9 -15 1 -19 7 -3 3 -4 -9 -4 -12 1 -20 3 -18 6 3 2 0 10 -6 18 -9 10
-8 13 0 13 7 0 10 4 7 8 -3 5 1 9 9 9 12 0 12 -3 2 -16z m1716 12 c-7 -2 -19
-2 -25 0 -7 3 -2 5 12 5 14 0 19 -2 13 -5z m-588 -13 c18 -8 17 -9 -7 -9 -15
-1 -30 4 -33 9 -7 12 12 12 40 0z m670 0 l20 -9 -20 1 c-11 0 -31 4 -45 8
l-25 8 25 0 c14 0 34 -3 45 -8z m-699 -27 c-6 -6 -36 9 -36 18 0 5 9 4 20 -3
10 -7 18 -14 16 -15z m-1170 -51 c-7 -7 -20 -10 -30 -6 -16 6 -16 8 0 25 13
14 19 15 29 6 11 -10 11 -15 1 -25z m960 16 c-9 -5 -22 -7 -29 -4 -7 2 -4 5 6
5 9 1 17 6 17 12 0 5 5 7 11 3 8 -5 6 -10 -5 -16z m1057 15 c-7 -2 -21 -2 -30
0 -10 3 -4 5 12 5 17 0 24 -2 18 -5z m47 -17 c-7 -7 -13 -7 -20 0 -6 6 -3 10
10 10 13 0 16 -4 10 -10z m35 -6 c3 -5 1 -10 -4 -10 -6 0 -11 5 -11 10 0 6 2
10 4 10 3 0 8 -4 11 -10z m1005 -44 c0 0 -10 -2 -23 -2 -16 -1 -23 4 -23 16 0
16 2 16 23 3 13 -9 23 -16 23 -17z m55 23 c9 -13 6 -15 -25 -23 -21 -6 -22 -5
-7 4 9 6 15 15 12 21 -4 5 -2 9 4 9 5 0 13 -5 16 -11z m-3195 -3 c0 -2 -7 -9
-15 -16 -13 -11 -14 -10 -9 4 5 14 24 23 24 12z m2205 -6 c3 -6 -1 -7 -9 -4
-18 7 -21 14 -7 14 6 0 13 -4 16 -10z m179 -49 c-2 -3 -12 3 -22 13 -16 17
-16 18 5 5 12 -7 20 -15 17 -18z m56 19 c-8 -5 -19 -10 -25 -10 -5 0 -3 5 5
10 8 5 20 10 25 10 6 0 3 -5 -5 -10z m-2511 -29 c10 -7 7 -9 -12 -8 -14 1 -23
5 -20 10 6 9 15 9 32 -2z m2516 -11 c3 -5 2 -10 -4 -10 -5 0 -13 5 -16 10 -3
6 -2 10 4 10 5 0 13 -4 16 -10z m-2481 -21 c4 -3 -7 -5 -24 -4 -17 1 -33 4
-36 7 -3 3 8 5 25 4 16 -1 32 -4 35 -7z m648 -31 c-5 -5 -18 -8 -28 -5 -15 4
-14 5 4 6 15 1 21 5 16 13 -5 7 -3 8 5 3 8 -5 9 -11 3 -17z m1854 6 c18 -14
18 -14 -6 -3 -31 14 -36 19 -24 19 6 0 19 -7 30 -16z m134 -4 c0 -5 -4 -10
-10 -10 -5 0 -10 5 -10 10 0 6 5 10 10 10 6 0 10 -4 10 -10z m-2045 -20 c-3
-5 -11 -10 -16 -10 -6 0 -7 5 -4 10 3 6 11 10 16 10 6 0 7 -4 4 -10z m2792
-13 c-2 -7 -1 -19 4 -28 5 -11 4 -21 -4 -27 -9 -8 -12 0 -12 33 0 24 4 41 8
38 4 -3 6 -10 4 -16z m-767 9 c0 -11 -19 -15 -25 -6 -3 5 1 10 9 10 9 0 16 -2
16 -4z m832 -75 l23 -23 -31 16 c-21 10 -33 25 -37 43 -5 26 -4 26 8 8 8 -11
24 -31 37 -44z m-822 39 c0 -5 -2 -10 -4 -10 -3 0 -8 5 -11 10 -3 6 -1 10 4
10 6 0 11 -4 11 -10z m-2799 -57 c13 -16 12 -17 -3 -4 -10 7 -18 15 -18 17 0
8 8 3 21 -13z m2974 -33 c3 -5 1 -10 -4 -10 -6 0 -11 5 -11 10 0 6 2 10 4 10
3 0 8 -4 11 -10z m72 -87 c-4 -3 1 -12 11 -20 15 -13 15 -13 -6 -3 -19 9 -23
30 -5 30 4 0 3 -3 0 -7z m67 -21 c7 -12 10 -12 17 -1 6 9 9 10 9 2 0 -20 -19
-25 -36 -9 -8 9 -20 16 -25 16 -5 0 -9 4 -9 10 0 13 33 0 44 -18z m641 -1 c-3
-6 3 -14 12 -20 19 -11 17 -12 -34 -16 -18 -1 -30 2 -27 6 2 4 11 6 20 2 8 -3
14 -2 13 3 -3 20 2 34 12 34 5 0 8 -4 4 -9z m-655 -26 c0 -8 -2 -15 -4 -15 -2
0 -6 7 -10 15 -3 8 -1 15 4 15 6 0 10 -7 10 -15z m30 -20 c0 -8 -2 -15 -4 -15
-2 0 -6 7 -10 15 -3 8 -1 15 4 15 6 0 10 -7 10 -15z m30 -23 c0 -10 5 -23 12
-30 7 -7 9 -12 4 -12 -13 0 -31 24 -32 43 -1 9 2 17 7 17 5 0 9 -8 9 -18z m32
-54 c-8 -8 -9 -4 -5 13 4 13 8 18 11 10 2 -7 -1 -18 -6 -23z m638 7 c-7 -8
-18 -15 -24 -15 -6 0 -2 7 8 15 25 19 32 19 16 0z m-4076 -20 c-4 -8 -1 -15 7
-15 7 0 9 -3 6 -6 -4 -4 -14 -1 -22 6 -13 11 -13 15 -3 21 18 12 18 11 12 -6z
m1756 -5 c0 -5 -5 -10 -11 -10 -5 0 -7 5 -4 10 3 6 8 10 11 10 2 0 4 -4 4 -10z
m620 -23 c-14 -6 -28 -16 -32 -22 -5 -6 -8 -5 -8 3 0 7 10 17 23 22 32 13 46
11 17 -3z m1125 3 c3 -5 1 -10 -4 -10 -6 0 -11 5 -11 10 0 6 2 10 4 10 3 0 8
-4 11 -10z m608 -7 c-4 -10 -2 -14 4 -10 13 8 10 -39 -2 -51 -5 -4 -5 2 -1 12
4 11 2 22 -5 27 -11 6 -6 39 5 39 3 0 2 -7 -1 -17z m-1688 -3 c-3 -5 -12 -10
-18 -10 -7 0 -6 4 3 10 19 12 23 12 15 0z m-2402 -15 c-3 -9 -8 -14 -10 -11
-3 3 -2 9 2 15 9 16 15 13 8 -4z m4119 -47 c-7 -7 -12 -8 -12 -2 0 14 12 26
19 19 2 -3 -1 -11 -7 -17z m-1602 2 c13 -8 13 -10 -2 -10 -9 0 -20 5 -23 10
-8 13 5 13 25 0z m1590 -35 c14 -19 14 -19 -2 -6 -10 7 -18 18 -18 24 0 6 1 8
3 6 1 -2 9 -13 17 -24z m-3674 -4 c0 -11 -4 -17 -8 -15 -4 3 -8 12 -8 20 0 8
4 14 8 14 4 0 8 -9 8 -19z m2189 9 c4 -6 -6 -10 -22 -9 -25 0 -26 1 -8 9 11 5
21 9 22 9 1 1 5 -3 8 -9z m-88 -6 c-3 -3 -12 -4 -19 -1 -8 3 -5 6 6 6 11 1 17
-2 13 -5z m138 -21 c15 -12 16 -14 3 -10 -9 3 -19 3 -21 -1 -2 -4 -2 -2 -1 5
2 6 -2 14 -9 17 -7 2 -7 5 -2 5 6 0 19 -7 30 -16z m-1315 -23 c0 -5 -5 -10
-11 -10 -5 0 -7 5 -4 10 3 6 8 10 11 10 2 0 4 -4 4 -10z m2237 -27 c-3 -10 -5
-4 -5 12 0 17 2 24 5 18 2 -7 2 -21 0 -30z m-899 15 c19 -19 14 -25 -16 -24
-16 1 -29 6 -29 13 0 6 7 9 15 5 10 -3 13 -1 8 6 -9 16 7 15 22 0z m881 -30
l-1 -43 -8 35 c-8 32 -6 50 6 50 2 0 4 -19 3 -42z m604 -12 c-3 -13 1 -34 8
-47 11 -22 11 -23 -5 -10 -11 9 -16 26 -14 52 1 21 5 36 9 34 3 -3 4 -15 2
-29z m-3840 -41 c-3 -9 -8 -14 -10 -11 -3 3 -2 9 2 15 9 16 15 13 8 -4z m3239
-61 c-6 -35 -12 -29 -10 11 1 20 4 31 8 25 4 -6 5 -22 2 -36z m-25 -46 c-3 -8
-6 -5 -6 6 -1 11 2 17 5 13 3 -3 4 -12 1 -19z m713 12 c0 -5 -5 -10 -11 -10
-5 0 -7 5 -4 10 3 6 8 10 11 10 2 0 4 -4 4 -10z m12 -22 c-14 -14 -16 -32 -2
-23 6 4 7 -1 3 -11 -5 -13 -3 -16 10 -11 14 5 15 4 4 -13 -15 -25 -24 -25 -37
1 -9 16 -8 26 5 45 8 13 19 24 22 24 4 0 2 -5 -5 -12z m-3239 -61 c3 -8 -3
-14 -15 -14 -16 -2 -17 1 -8 13 15 17 17 17 23 1z m2057 -91 c0 -1 -9 -2 -20
-2 -10 0 -17 2 -15 5 3 2 -1 11 -8 19 -9 11 -4 11 16 -2 15 -10 27 -19 27 -20z
m413 9 c-3 -9 -8 -14 -10 -11 -3 3 -2 9 2 15 9 16 15 13 8 -4z m-86 -20 c0 -8
-6 -15 -14 -15 -7 0 -13 -4 -13 -9 0 -5 -23 -11 -50 -15 -28 -4 -58 -9 -68
-12 -14 -5 -14 -4 -2 4 8 6 35 14 61 17 27 4 55 15 65 26 21 23 21 23 21 4z
m-272 -47 c-9 -6 -19 -7 -22 -4 -4 3 -1 6 6 6 7 0 9 4 6 10 -4 6 1 7 11 3 15
-6 15 -7 -1 -15z m69 12 c14 -5 26 -15 26 -22 0 -8 -3 -9 -8 -3 -4 6 -18 16
-32 22 -31 14 -21 17 14 3z m-13 -27 c13 -17 13 -17 -6 -3 -11 8 -22 16 -24
17 -2 2 0 3 6 3 6 0 17 -8 24 -17z m-3061 -38 c0 -8 -4 -15 -8 -15 -5 0 -9 7
-9 15 0 8 4 15 9 15 4 0 8 -7 8 -15z m-473 -62 c-3 -10 -5 -2 -5 17 0 19 2 27
5 18 2 -10 2 -26 0 -35z m1185 28 c8 12 9 12 6 0 -2 -8 -11 -15 -20 -17 -12
-1 -15 3 -10 14 4 12 7 13 10 3 4 -11 6 -11 14 0z m3520 -15 c7 4 8 2 4 -5 -9
-13 -26 -5 -25 12 0 9 2 8 6 -1 2 -6 10 -9 15 -6z m-4705 -118 c-3 -8 -6 -5
-6 6 -1 11 2 17 5 13 3 -3 4 -12 1 -19z m4761 -98 c-1 -16 -7 -31 -13 -34 -10
-3 -10 3 -2 30 13 42 16 43 15 4z m-5 -70 c-3 -12 -8 -19 -11 -16 -5 6 5 36
12 36 2 0 2 -9 -1 -20z m-4826 -32 c-3 -7 -5 -2 -5 12 0 14 2 19 5 13 2 -7 2
-19 0 -25z m2203 -18 c0 -5 5 -10 11 -10 5 0 8 4 5 8 -2 4 3 8 13 8 10 0 18
-6 18 -13 0 -7 -4 -10 -8 -8 -4 3 -18 1 -31 -5 -18 -7 -14 -8 21 -5 23 3 48 8
55 12 6 4 54 6 106 6 63 -2 88 1 75 7 -36 16 4 10 47 -7 30 -12 43 -13 46 -5
5 15 144 16 159 1 7 -7 46 -9 114 -6 169 9 432 13 407 5 -17 -4 -13 -6 17 -7
29 0 36 2 25 9 -21 13 211 13 269 -1 33 -7 46 -7 52 2 6 10 11 10 23 0 19 -16
150 -8 172 10 10 8 14 8 14 0 0 -6 -4 -11 -8 -11 -5 0 -17 -7 -28 -15 -18 -15
-18 -15 0 -8 12 4 17 3 13 -4 -4 -6 0 -14 9 -17 9 -4 13 -2 8 5 -4 8 0 7 15 0
11 -7 21 -14 21 -17 0 -3 -4 -2 -10 1 -5 3 -10 4 -10 1 0 -3 10 -10 21 -17 15
-8 19 -8 15 0 -5 8 0 8 18 -1 14 -6 26 -16 26 -21 0 -5 -7 -4 -15 3 -8 7 -15
10 -15 6 0 -3 0 -8 0 -11 0 -3 2 -4 5 -2 2 1 11 -7 20 -18 l15 -20 -6 20 c-6
16 -5 18 7 8 10 -10 10 -16 2 -24 -9 -9 -7 -21 7 -50 19 -36 19 -67 20 -724 0
-506 -3 -691 -11 -702 -10 -11 -9 -12 5 -7 12 5 15 2 10 -10 -4 -10 -12 -15
-19 -12 -17 6 -27 -18 -13 -32 6 -6 6 -12 -3 -17 -8 -5 -10 -4 -5 3 5 8 2 10
-9 6 -14 -6 -14 -8 1 -19 24 -17 26 -41 4 -41 -15 0 -17 4 -8 21 7 12 -3 6
-25 -15 -19 -19 -33 -38 -31 -42 3 -4 -2 -5 -11 -1 -13 5 -14 7 -3 14 9 6 9 9
1 9 -6 0 -19 -7 -27 -16 -9 -8 -28 -17 -43 -20 -15 -3 -30 -7 -33 -9 -14 -9
-142 -7 -148 1 -11 16 -84 55 -90 49 -3 -3 3 -12 14 -20 10 -8 14 -15 8 -15
-13 0 -35 24 -33 36 4 21 -2 25 -18 13 -16 -12 -17 -12 -6 2 10 13 8 22 -12
49 -14 19 -25 28 -25 20 0 -7 8 -22 18 -33 16 -19 16 -20 -5 -8 -19 10 -23 9
-23 -4 0 -8 5 -15 12 -15 6 0 8 -3 5 -6 -11 -11 -38 18 -28 30 12 15 20 67 14
84 -5 11 -7 11 -15 0 -7 -9 -8 -5 -5 15 3 22 2 25 -10 16 -11 -10 -12 -8 -3
15 13 35 13 71 0 41 -6 -15 -9 -16 -9 -4 -1 9 2 18 5 22 4 3 6 52 5 109 0 57
0 128 1 158 5 128 0 548 -7 583 -5 28 -4 37 6 37 9 1 8 4 -4 11 -10 6 -68 12
-128 14 -61 2 -114 7 -117 10 -4 4 39 5 95 3 56 -3 100 -1 97 4 -3 4 -157 7
-342 6 -185 -1 -299 -4 -252 -7 74 -5 60 -7 -109 -14 -106 -4 -196 -5 -199 -2
-3 3 29 5 71 5 47 0 77 4 77 10 0 13 -233 11 -252 -2 -10 -6 -10 -8 1 -8 8 0
12 -2 9 -5 -3 -3 -16 -1 -29 4 -17 7 -19 10 -6 10 9 1 17 5 17 10 0 12 -56 31
-65 23 -3 -4 -9 -2 -13 4 -4 6 -30 31 -59 56 -28 26 -49 49 -46 52 6 5 -12 10
-29 7 -4 0 -5 6 -1 15 5 13 7 13 14 2 5 -7 9 -8 9 -3 0 6 -9 24 -20 40 -12 19
-20 47 -20 75 0 32 -3 41 -10 30 -12 -19 -16 -13 -24 37 -5 36 -3 46 15 64 15
15 23 18 29 9 5 -8 9 -7 13 5 4 9 3 13 -3 10 -16 -10 -11 5 10 32 11 14 20 22
20 18 0 -4 7 -2 15 5 8 7 12 16 10 21 -8 11 31 30 48 23 8 -3 18 -1 22 5 3 6
0 9 -8 6 -7 -3 -22 4 -32 15 -16 18 -17 20 -2 14 9 -3 17 -2 17 4 0 6 -6 13
-12 15 -8 3 -6 6 5 6 9 1 17 -3 17 -9z m90 0 c-8 -5 -19 -10 -25 -10 -5 0 -3
5 5 10 8 5 20 10 25 10 6 0 3 -5 -5 -10z m1477 4 c-3 -3 -12 -4 -19 -1 -8 3
-5 6 6 6 11 1 17 -2 13 -5z m-924 -11 c-24 -2 -62 -2 -85 0 -24 2 -5 4 42 4
47 0 66 -2 43 -4z m1982 -33 c-4 -17 -9 -30 -11 -27 -2 2 -1 18 2 36 4 17 9
30 11 27 3 -2 2 -19 -2 -36z m20 -27 c-10 -53 -18 -32 -9 24 4 26 10 40 12 30
2 -11 1 -35 -3 -54z m-2713 15 c-7 -7 -12 -8 -12 -2 0 14 12 26 19 19 2 -3 -1
-11 -7 -17z m-2145 -25 c-3 -10 -5 -4 -5 12 0 17 2 24 5 18 2 -7 2 -21 0 -30z
m2133 -5 c0 -5 5 -6 12 -2 7 5 8 3 4 -5 -5 -7 -11 -10 -14 -7 -3 3 -13 -1 -22
-9 -15 -14 -16 -13 -14 7 3 27 1 25 19 25 8 0 15 -4 15 -9z m2707 -60 c-3 -8
-6 -5 -6 6 -1 11 2 17 5 13 3 -3 4 -12 1 -19z m25 -76 c2 -51 0 -92 -4 -92 -5
0 -8 44 -8 97 0 121 9 117 12 -5z m-892 -4 c0 -38 -5 -34 -13 10 -4 21 -3 31
3 27 6 -3 10 -20 10 -37z m857 5 c-3 -10 -5 -4 -5 12 0 17 2 24 5 18 2 -7 2
-21 0 -30z m-3726 -11 c-6 -2 -12 -22 -13 -45 -1 -39 -1 -40 -5 -8 -5 39 19
110 25 76 3 -10 -1 -21 -7 -23z m2896 16 c-3 -8 -6 -5 -6 6 -1 11 2 17 5 13 3
-3 4 -12 1 -19z m-4010 -40 c-3 -8 -6 -5 -6 6 -1 11 2 17 5 13 3 -3 4 -12 1
-19z m3980 -50 c-3 -7 -5 -2 -5 12 0 14 2 19 5 13 2 -7 2 -19 0 -25z m-3970
-110 c-3 -8 -6 -5 -6 6 -1 11 2 17 5 13 3 -3 4 -12 1 -19z m1100 -40 c-2 -13
-4 -3 -4 22 0 25 2 35 4 23 2 -13 2 -33 0 -45z m2890 0 c-2 -13 -4 -3 -4 22 0
25 2 35 4 23 2 -13 2 -33 0 -45z m837 28 c-3 -15 -8 -25 -11 -23 -2 3 -1 17 3
31 3 15 8 25 11 23 2 -3 1 -17 -3 -31z m-2714 -51 c0 -14 -4 -25 -9 -25 -4 0
-6 11 -3 25 2 14 6 25 8 25 2 0 4 -11 4 -25z m59 -32 c12 -10 12 -11 0 -10
-24 4 -39 17 -39 35 0 14 2 14 13 1 6 -8 18 -19 26 -26z m-34 -13 c3 -5 2 -10
-4 -10 -5 0 -13 5 -16 10 -3 6 -2 10 4 10 5 0 13 -4 16 -10z m1852 -322 c-1
-62 -3 -12 -3 112 0 124 2 174 3 113 2 -62 2 -164 0 -225z m-1872 293 c-6 -5
-25 10 -25 20 0 5 6 4 14 -3 8 -7 12 -15 11 -17z m162 -27 c-3 -3 -12 -4 -19
-1 -8 3 -5 6 6 6 11 1 17 -2 13 -5z m736 -31 c-24 -2 -62 -2 -85 0 -24 2 -5 4
42 4 47 0 66 -2 43 -4z m954 -15 c-3 -8 -6 -5 -6 6 -1 11 2 17 5 13 3 -3 4
-12 1 -19z m-1684 5 c-7 -2 -19 -2 -25 0 -7 3 -2 5 12 5 14 0 19 -2 13 -5z
m1084 -9 c-3 -3 -12 -4 -19 -1 -8 3 -5 6 6 6 11 1 17 -2 13 -5z m10 -206 c-2
-24 -4 -5 -4 42 0 47 2 66 4 43 2 -24 2 -62 0 -85z m-2875 80 c-7 -7 -12 -8
-12 -2 0 6 3 14 7 17 3 4 9 5 12 2 2 -3 -1 -11 -7 -17z m33 -66 c-11 -11 -22
11 -17 35 l5 28 8 -29 c5 -17 7 -32 4 -34z m666 1 c-12 -20 -14 -14 -5 12 4 9
9 14 11 11 3 -2 0 -13 -6 -23z m-1124 -15 c-3 -8 -6 -5 -6 6 -1 11 2 17 5 13
3 -3 4 -12 1 -19z m511 -169 c-6 -16 -12 -29 -13 -27 -6 6 8 58 16 58 4 0 3
-14 -3 -31z m737 11 c3 -5 1 -10 -4 -10 -6 0 -11 5 -11 10 0 6 2 10 4 10 3 0
8 -4 11 -10z m43 -95 c-3 -3 -9 2 -12 12 -6 14 -5 15 5 6 7 -7 10 -15 7 -18z
m3289 -107 c-3 -7 -5 -2 -5 12 0 14 2 19 5 13 2 -7 2 -19 0 -25z m-690 -35
c-3 -10 -5 -4 -5 12 0 17 2 24 5 18 2 -7 2 -21 0 -30z m-2207 -143 c-8 -5 -19
-10 -25 -10 -5 0 -3 5 5 10 8 5 20 10 25 10 6 0 3 -5 -5 -10z m110 -74 c0 -2
-7 -7 -16 -10 -8 -3 -12 -2 -9 4 6 10 25 14 25 6z m50 -16 c-12 -8 -12 -10 -1
-10 8 0 12 -2 10 -5 -3 -2 -16 -1 -29 2 -22 6 -23 7 -4 14 27 11 42 10 24 -1z
m777 -62 c-22 -6 -42 -7 -47 -2 -5 5 12 10 38 10 l47 2 -38 -10z m63 2 c0 -5
-2 -10 -4 -10 -3 0 -8 5 -11 10 -3 6 -1 10 4 10 6 0 11 -4 11 -10z m-130 -4
c0 -2 -7 -6 -15 -10 -8 -3 -15 -1 -15 4 0 6 7 10 15 10 8 0 15 -2 15 -4z
m-386 -15 c3 -4 -6 -6 -19 -3 -14 2 -25 6 -25 8 0 8 39 4 44 -5z m-59 -19 c-3
-3 -11 0 -18 7 -9 10 -8 11 6 5 10 -3 15 -9 12 -12z m465 8 c0 -5 -8 -10 -17
-10 -15 0 -16 2 -3 10 19 12 20 12 20 0z m1321 -47 c-12 -20 -14 -14 -5 12 4
9 9 14 11 11 3 -2 0 -13 -6 -23z m26 -15 c-3 -8 -6 -5 -6 6 -1 11 2 17 5 13 3
-3 4 -12 1 -19z m-2917 -43 c0 -2 -5 -7 -12 -11 -7 -4 -8 -3 -4 4 4 7 -3 17
-18 24 -14 6 -26 15 -26 20 0 5 14 0 30 -12 17 -12 30 -23 30 -25z m2927 3
c-3 -8 -6 -5 -6 6 -1 11 2 17 5 13 3 -3 4 -12 1 -19z m-2979 -6 c2 -7 -2 -10
-12 -6 -9 3 -16 11 -16 16 0 13 23 5 28 -10z m2365 5 c3 -8 2 -20 -3 -26 -5
-9 -7 -4 -7 13 0 29 2 32 10 13z m-2167 -132 c-3 -23 -12 -26 -13 -5 -1 11 2
20 7 20 4 0 7 -7 6 -15z m2329 -15 c-3 -5 -23 -9 -43 -9 l-37 2 40 7 c22 4 41
8 43 9 2 0 0 -3 -3 -9z m260 -1 c-18 -8 -17 -9 6 -6 15 2 26 -1 26 -8 0 -12
-37 -12 -57 0 -14 9 6 25 30 24 10 0 9 -3 -5 -10z m-2554 -16 c13 -16 12 -17
-3 -4 -10 7 -18 15 -18 17 0 8 8 3 21 -13z m2214 -3 c3 -6 -1 -7 -9 -4 -18 7
-21 14 -7 14 6 0 13 -4 16 -10z m-2151 -55 c11 -8 15 -15 10 -15 -6 0 -19 7
-30 15 -10 8 -14 14 -9 14 6 0 19 -6 29 -14z m2759 -79 c9 -7 17 -18 17 -25 0
-6 5 -11 11 -11 5 0 7 -5 3 -11 -5 -8 -8 -8 -14 0 -3 7 -14 9 -23 5 -13 -5
-16 -2 -11 10 4 11 1 16 -10 16 -9 0 -16 7 -16 15 0 18 19 19 43 1z m-1226
-28 c-3 -8 -6 -5 -6 6 -1 11 2 17 5 13 3 -3 4 -12 1 -19z m-1352 2 c3 -6 -1
-7 -9 -4 -18 7 -21 14 -7 14 6 0 13 -4 16 -10z m1372 -42 c-3 -7 -5 -2 -5 12
0 14 2 19 5 13 2 -7 2 -19 0 -25z m-1992 -59 c11 -16 1 -19 -13 -3 -7 8 -8 14
-3 14 5 0 13 -5 16 -11z m2002 -31 c-3 -7 -5 -2 -5 12 0 14 2 19 5 13 2 -7 2
-19 0 -25z m-1033 3 c4 -5 -3 -7 -14 -4 -23 6 -26 13 -6 13 8 0 17 -4 20 -9z
m53 -17 c-3 -3 -12 -4 -19 -1 -8 3 -5 6 6 6 11 1 17 -2 13 -5z m-27 -14 c18
-12 2 -12 -25 0 -13 6 -15 9 -5 9 8 0 22 -4 30 -9z m50 -4 c0 -3 -4 -8 -10
-11 -5 -3 -10 -1 -10 4 0 6 5 11 10 11 6 0 10 -2 10 -4z m-970 -31 c11 -13 10
-14 -4 -9 -9 3 -16 10 -16 15 0 13 6 11 20 -6z m1683 -22 c-7 -2 -19 -2 -25 0
-7 3 -2 5 12 5 14 0 19 -2 13 -5z m-400 -10 c-7 -2 -19 -2 -25 0 -7 3 -2 5 12
5 14 0 19 -2 13 -5z m244 -9 c-3 -3 -12 -4 -19 -1 -8 3 -5 6 6 6 11 1 17 -2
13 -5z m-240 -10 c-3 -3 -12 -4 -19 -1 -8 3 -5 6 6 6 11 1 17 -2 13 -5z m1445
-56 c-7 -7 -12 -8 -12 -2 0 14 12 26 19 19 2 -3 -1 -11 -7 -17z m-42 -35 c0
-1 -8 -7 -18 -12 -13 -7 -19 -6 -19 2 0 7 9 13 19 13 10 0 18 -1 18 -3z
m-2213 -89 c-3 -3 -12 -4 -19 -1 -8 3 -5 6 6 6 11 1 17 -2 13 -5z m-82 -14 c3
-5 1 -10 -4 -10 -6 0 -11 5 -11 10 0 6 2 10 4 10 3 0 8 -4 11 -10z m232 -96
c-3 -3 -12 -4 -19 -1 -8 3 -5 6 6 6 11 1 17 -2 13 -5z m136 -51 c-7 -2 -19 -2
-25 0 -7 3 -2 5 12 5 14 0 19 -2 13 -5z m124 -9 c-3 -3 -12 -4 -19 -1 -8 3 -5
6 6 6 11 1 17 -2 13 -5z m573 -74 c0 -5 -5 -10 -11 -10 -5 0 -7 5 -4 10 3 6 8
10 11 10 2 0 4 -4 4 -10z m-97 -7 c-7 -2 -21 -2 -30 0 -10 3 -4 5 12 5 17 0
24 -2 18 -5z"/>
<path d="M5217 6923 c-3 -5 19 -8 48 -8 30 0 48 3 42 7 -16 10 -84 10 -90 1z"/>
<path d="M4843 6903 c9 -2 23 -2 30 0 6 3 -1 5 -18 5 -16 0 -22 -2 -12 -5z"/>
<path d="M5348 6903 c6 -2 18 -2 25 0 6 3 1 5 -13 5 -14 0 -19 -2 -12 -5z"/>
<path d="M4368 6783 c7 -3 16 -2 19 1 4 3 -2 6 -13 5 -11 0 -14 -3 -6 -6z"/>
<path d="M4285 6740 c-3 -5 -1 -10 4 -10 6 0 11 5 11 10 0 6 -2 10 -4 10 -3 0
-8 -4 -11 -10z"/>
<path d="M4130 6660 c-8 -5 -12 -11 -10 -14 3 -2 14 2 24 10 22 15 10 19 -14
4z"/>
<path d="M3680 6321 c0 -6 -6 -11 -13 -11 -15 0 -47 -31 -47 -45 0 -5 10 1 23
12 12 11 30 25 41 30 12 7 15 13 7 17 -6 4 -11 2 -11 -3z"/>
<path d="M3610 6300 c0 -5 5 -10 10 -10 6 0 10 5 10 10 0 6 -4 10 -10 10 -5 0
-10 -4 -10 -10z"/>
<path d="M4720 6280 c0 -5 4 -10 9 -10 6 0 13 5 16 10 3 6 -1 10 -9 10 -9 0
-16 -4 -16 -10z"/>
<path d="M3649 6263 c-13 -16 -12 -17 4 -4 9 7 17 15 17 17 0 8 -8 3 -21 -13z"/>
<path d="M3609 6242 c-1 -4 -1 -10 0 -14 0 -5 -8 -8 -18 -8 -11 0 -22 -4 -26
-9 -10 -17 39 -7 57 11 14 14 14 17 2 22 -8 3 -15 2 -15 -2z"/>
<path d="M4570 6225 c-7 -8 -8 -15 -2 -15 5 0 15 7 22 15 7 8 8 15 2 15 -5 0
-15 -7 -22 -15z"/>
<path d="M3570 6175 c0 -8 2 -15 4 -15 2 0 6 7 10 15 3 8 1 15 -4 15 -6 0 -10
-7 -10 -15z"/>
<path d="M4285 6040 c3 -5 11 -10 16 -10 6 0 7 5 4 10 -3 6 -11 10 -16 10 -6
0 -7 -4 -4 -10z"/>
<path d="M4183 5978 c-32 -36 -17 -55 18 -22 15 15 26 31 23 36 -8 13 -19 9
-41 -14z m21 -2 c-3 -8 -13 -17 -22 -21 -13 -5 -13 -2 3 15 21 24 26 25 19 6z"/>
<path d="M6020 5955 c-11 -13 -10 -14 4 -9 9 3 16 10 16 15 0 13 -6 11 -20 -6z"/>
<path d="M4054 5813 c3 -6 2 -14 -4 -18 -14 -9 -12 -22 3 -22 15 0 16 32 2 44
-4 5 -5 3 -1 -4z"/>
<path d="M3306 5727 c3 -10 9 -15 12 -12 3 3 0 11 -7 18 -10 9 -11 8 -5 -6z"/>
<path d="M3880 5551 c0 -5 5 -13 10 -16 6 -3 10 -2 10 4 0 5 -4 13 -10 16 -5
3 -10 2 -10 -4z"/>
<path d="M3224 5458 c-12 -14 -13 -18 -3 -10 9 6 19 9 22 5 4 -3 7 1 7 10 0
22 -3 21 -26 -5z"/>
<path d="M3221 5414 c0 -11 3 -14 6 -6 3 7 2 16 -1 19 -3 4 -6 -2 -5 -13z"/>
<path d="M3212 4665 c0 -16 2 -22 5 -12 2 9 2 23 0 30 -3 6 -5 -1 -5 -18z"/>
<path d="M3241 4560 c0 -8 6 -24 14 -34 19 -25 19 -9 0 24 -8 14 -14 19 -14
10z"/>
<path d="M4206 4052 c-3 -5 1 -15 8 -21 11 -10 14 -9 12 3 -3 21 -13 29 -20
18z"/>
<path d="M4760 3734 l-25 -15 25 7 c14 3 29 10 35 15 15 14 -7 10 -35 -7z"/>
<path d="M4368 3233 c7 -3 16 -2 19 1 4 3 -2 6 -13 5 -11 0 -14 -3 -6 -6z"/>
<path d="M5298 3103 c6 -2 18 -2 25 0 6 3 1 5 -13 5 -14 0 -19 -2 -12 -5z"/>
<path d="M3560 6849 c0 -5 5 -7 10 -4 6 3 10 8 10 11 0 2 -4 4 -10 4 -5 0 -10
-5 -10 -11z"/>
<path d="M7370 5885 c0 -5 5 -17 10 -25 5 -8 10 -10 10 -5 0 6 -5 17 -10 25
-5 8 -10 11 -10 5z"/>
<path d="M5688 5253 c7 -3 16 -2 19 1 4 3 -2 6 -13 5 -11 0 -14 -3 -6 -6z"/>
<path d="M6118 5253 c23 -2 61 -2 85 0 23 2 4 4 -43 4 -47 0 -66 -2 -42 -4z"/>
<path d="M6910 7426 c0 -2 7 -9 15 -16 12 -10 15 -10 15 4 0 9 -7 16 -15 16
-8 0 -15 -2 -15 -4z"/>
<path d="M4210 7256 c0 -9 5 -16 10 -16 6 0 10 4 10 9 0 6 -4 13 -10 16 -5 3
-10 -1 -10 -9z"/>
<path d="M4170 7250 c-8 -5 -12 -11 -9 -14 3 -3 14 1 25 9 21 16 8 20 -16 5z"/>
<path d="M2655 6789 c-4 -6 -5 -12 -2 -15 2 -3 7 2 10 11 7 17 1 20 -8 4z"/>
<path d="M2506 6523 c-6 -14 -5 -15 5 -6 7 7 10 15 7 18 -3 3 -9 -2 -12 -12z"/>
<path d="M2482 6487 c-6 -7 -8 -18 -4 -24 6 -9 11 -6 20 7 13 22 0 36 -16 17z"/>
<path d="M2461 6434 c0 -11 3 -14 6 -6 3 7 2 16 -1 19 -3 4 -6 -2 -5 -13z"/>
<path d="M2346 6223 c-4 -9 -3 -20 1 -24 4 -4 9 3 9 17 2 28 -1 31 -10 7z"/>
<path d="M3000 6191 c0 -5 5 -13 10 -16 6 -3 10 -2 10 4 0 5 -4 13 -10 16 -5
3 -10 2 -10 -4z"/>
<path d="M7290 6140 c0 -5 5 -10 11 -10 5 0 7 5 4 10 -3 6 -8 10 -11 10 -2 0
-4 -4 -4 -10z"/>
<path d="M2920 6056 c0 -8 -3 -23 -6 -33 -3 -10 2 -7 10 7 18 30 20 40 6 40
-5 0 -10 -6 -10 -14z"/>
<path d="M2212 5868 c-15 -15 -15 -38 -1 -58 8 -12 9 -10 4 9 -5 17 -4 22 5
16 9 -5 11 -4 6 4 -4 6 -2 18 4 26 15 18 -1 20 -18 3z"/>
<path d="M7571 4834 c0 -11 3 -14 6 -6 3 7 2 16 -1 19 -3 4 -6 -2 -5 -13z"/>
<path d="M7560 4790 c0 -5 5 -10 10 -10 6 0 10 5 10 10 0 6 -4 10 -10 10 -5 0
-10 -4 -10 -10z"/>
<path d="M7543 4705 c0 -22 2 -30 4 -17 2 12 2 30 0 40 -3 9 -5 -1 -4 -23z"/>
<path d="M7562 4720 c0 -14 2 -19 5 -12 2 6 2 18 0 25 -3 6 -5 1 -5 -13z"/>
<path d="M7525 4558 c-6 -32 -2 -77 8 -71 4 2 5 21 1 40 -5 26 -3 34 5 29 7
-5 9 -1 5 8 -8 22 -13 20 -19 -6z"/>
<path d="M7473 4390 c-13 -5 -23 -17 -22 -27 0 -11 3 -13 6 -5 2 6 11 12 18
12 7 0 15 7 19 15 3 8 4 15 3 14 -1 0 -12 -4 -24 -9z"/>
<path d="M7460 4327 c0 -10 8 -17 18 -17 9 0 13 4 7 8 -5 4 -13 11 -17 16 -5
5 -8 2 -8 -7z"/>
<path d="M7380 4146 c0 -9 5 -16 10 -16 6 0 10 4 10 9 0 6 -4 13 -10 16 -5 3
-10 -1 -10 -9z"/>
<path d="M7330 3985 c-7 -9 -11 -17 -9 -20 3 -2 10 5 17 15 14 24 10 26 -8 5z"/>
<path d="M7302 3936 c1 -14 5 -23 9 -20 7 4 0 44 -7 44 -2 0 -3 -11 -2 -24z"/>
<path d="M7177 3703 c-4 -3 -7 -11 -7 -17 0 -6 5 -5 12 2 6 6 9 14 7 17 -3 3
-9 2 -12 -2z"/>
<path d="M7049 3535 c-1 -3 -2 -8 -3 -12 -1 -5 -5 -15 -10 -23 -6 -9 -1 -8 12
4 12 10 19 23 16 27 -6 10 -13 12 -15 4z"/>
<path d="M6970 3500 c0 -5 4 -10 10 -10 5 0 7 -8 3 -17 -4 -14 -3 -15 6 -7 6
6 9 18 5 27 -7 18 -24 23 -24 7z"/>
<path d="M6961 3463 c-1 -15 -9 -25 -26 -29 -14 -3 -25 -10 -25 -15 0 -10 50
-1 61 10 3 3 3 17 -2 31 -7 24 -7 24 -8 3z"/>
<path d="M6889 3375 c-1 -8 -2 -19 -3 -25 -2 -23 18 -9 21 15 2 14 -1 25 -7
25 -5 0 -11 -7 -11 -15z"/>
<path d="M6920 3379 c0 -5 5 -7 10 -4 6 3 10 8 10 11 0 2 -4 4 -10 4 -5 0 -10
-5 -10 -11z"/>
<path d="M6845 3300 c-3 -5 -2 -10 4 -10 5 0 13 5 16 10 3 6 2 10 -4 10 -5 0
-13 -4 -16 -10z"/>
<path d="M7646 3302 c-3 -5 1 -9 9 -9 8 0 12 4 9 9 -3 4 -7 8 -9 8 -2 0 -6 -4
-9 -8z"/>
<path d="M6769 3223 c-13 -16 -12 -17 4 -4 9 7 17 15 17 17 0 8 -8 3 -21 -13z"/>
<path d="M6574 3102 c3 -6 2 -13 -3 -17 -5 -3 -9 -14 -8 -25 1 -18 2 -18 18
-2 9 9 12 19 7 20 -4 2 -6 8 -3 12 3 5 0 12 -6 16 -7 4 -9 3 -5 -4z"/>
<path d="M6445 2980 c-3 -6 1 -7 9 -4 18 7 21 14 7 14 -6 0 -13 -4 -16 -10z"/>
<path d="M4640 2050 c0 -6 7 -10 15 -10 8 0 15 2 15 4 0 2 -7 6 -15 10 -8 3
-15 1 -15 -4z"/>
<path d="M2988 7176 c-17 -13 -14 -26 5 -26 6 0 7 3 4 7 -4 3 -2 12 4 20 14
16 9 16 -13 -1z"/>
</g>
</svg>
